<?xml version="1.0" encoding="UTF-8"?>
<svg id="Layer_2" data-name="Layer 2" xmlns="http://www.w3.org/2000/svg" viewBox="0 0 412.7 316.81">
  <defs>
    <style>
      .cls-1 {
        stroke: #8dcbb6;
        fill: none; /* Ensures the stroke is visible but the fill is transparent */
      }

      .cls-1, .cls-2 {
        stroke-miterlimit: 10;
        stroke-width: 40px;
      }

      .cls-2 {
        stroke: #2e5adb;
        fill: none; /* Ensures the stroke is visible but the fill is transparent */
      }
    </style>
  </defs>
  <g id="Layer_1-2">
    <g>
      <path class="cls-2" d="M148.97,86.68h237.47c3.46,0,6.27,3.6,6.27,8.05v141.63c0,4.44-2.81,8.05-6.27,8.05h-13.11s6.22,23.34,6.22,23.34l6.63,23.66c1.13,4.02-2.77,7.23-5.14,4.23l-24.05-30.31-15.58-20.43c-.12-.16-.23-.32-.32-.49h-192.12c-3.46,0-6.27-3.6-6.27-8.05V94.73c0-4.44,2.81-8.05,6.27-8.05Z"/>
      <path class="cls-1" d="M263.73,20H26.27c-3.46,0-6.27,3.6-6.27,8.05v141.63c0,4.44,2.81,8.05,6.27,8.05h13.11l-6.22,23.34-6.63,23.66c-1.13,4.02,2.77,7.23,5.14,4.23l24.05-30.31,15.58-20.43c.12-.16.23-.32.32-.49h192.12c3.46,0,6.27-3.6,6.27-8.05V28.05c0-4.44-2.81-8.05-6.27-8.05Z"/>
    </g>
  </g>
</svg>
