<svg width="225" height="225" viewBox="0 0 225 225" fill="none" xmlns="http://www.w3.org/2000/svg">
<rect x="0.5" y="0.5" width="224" height="224" rx="112" fill="white"/>
<rect x="0.5" y="0.5" width="224" height="224" rx="112" stroke="#DDDDDD"/>
<path fill-rule="evenodd" clip-rule="evenodd" d="M146.251 90C146.251 108.64 131.141 123.75 112.501 123.75C93.8618 123.75 78.7514 108.64 78.7514 90C78.7514 71.3604 93.8618 56.25 112.501 56.25C131.141 56.25 146.251 71.3604 146.251 90ZM135.001 90C135.001 102.426 124.928 112.5 112.501 112.5C100.075 112.5 90.0014 102.426 90.0014 90C90.0014 77.5736 100.075 67.5 112.501 67.5C124.928 67.5 135.001 77.5736 135.001 90Z" fill="#4F378A"/>
<path d="M112.501 140.625C76.083 140.625 45.0535 162.16 33.2336 192.33C36.1131 195.189 39.1463 197.894 42.3199 200.43C51.1215 172.731 78.7329 151.875 112.501 151.875C146.27 151.875 173.881 172.731 182.683 200.43C185.857 197.894 188.89 195.19 191.769 192.33C179.949 162.16 148.92 140.625 112.501 140.625Z" fill="#4F378A"/>
</svg>
