<?xml version="1.0" encoding="UTF-8"?>
<svg id="Layer_2" data-name="Layer 2" xmlns="http://www.w3.org/2000/svg" viewBox="0 0 196.41 197.36">
  <defs>
    <style>
      .cls-1 {
        fill: #444;
      }

      .cls-2 {
        fill: none;
        stroke: #2edb7b;
        stroke-linecap: round;
        stroke-linejoin: round;
        stroke-width: 6px;
      }
    </style>
  </defs>
  <g id="Layer_1-2">
    <g>
      <g>
        <path class="cls-1" d="M176.52,189.36c-2.46,0-4.77-.96-6.5-2.69l-49.18-49.18,15.69-15.69,49.19,49.18c3.58,3.58,3.58,9.42,0,13l-2.69,2.69c-1.74,1.74-4.05,2.69-6.5,2.69Z"/>
        <path class="cls-1" d="M136.53,133.1l43.53,43.53c.09.09.35.35.35.84s-.26.76-.35.84l-2.69,2.69c-.09.09-.35.35-.84.35s-.76-.26-.84-.35l-43.53-43.53,4.38-4.38M136.53,110.47l-27.01,27.01,54.84,54.84c3.36,3.36,7.76,5.04,12.16,5.04s8.8-1.68,12.16-5.04l2.69-2.69c6.71-6.71,6.71-17.6,0-24.32l-54.84-54.84h0Z"/>
      </g>
      <path d="M77,16c33.64,0,61,27.36,61,61s-27.36,61-61,61-61-27.36-61-61,27.36-61,61-61M77,0C34.47,0,0,34.47,0,77s34.47,77,77,77,77-34.47,77-77S119.53,0,77,0h0Z"/>
      <path class="cls-2" d="M25,83c-.41-4.67-.61-14.26,4-25,4.22-9.84,10.48-15.99,14-19"/>
    </g>
  </g>
</svg>
