<?xml version="1.0" encoding="UTF-8"?>
<svg id="Layer_2" data-name="Layer 2" xmlns="http://www.w3.org/2000/svg" viewBox="0 0 480.34 471.3">
  <defs>
    <style>
      .cls-1 {
        fill: #ffbda7;
      }

      .cls-2 {
        fill: #af6152;
      }

      .cls-3 {
        opacity: .25;
      }

      .cls-3, .cls-4 {
        fill: #2ec37b;
      }

      .cls-5, .cls-6 {
        fill: #ba68c8;
      }

      .cls-7 {
        fill: #b16668;
      }

      .cls-8 {
        fill: #ebebeb;
      }

      .cls-9 {
        fill: #e6e6e6;
      }

      .cls-10 {
        opacity: .22;
      }

      .cls-10, .cls-11 {
        fill: #fff;
      }

      .cls-12 {
        fill: #263238;
      }

      .cls-13, .cls-14, .cls-15, .cls-16, .cls-17, .cls-18 {
        fill: #2edb7b;
      }

      .cls-13, .cls-19 {
        opacity: .7;
      }

      .cls-14, .cls-20 {
        opacity: .85;
      }

      .cls-15, .cls-21 {
        opacity: .4;
      }

      .cls-16, .cls-22 {
        opacity: .2;
      }

      .cls-17 {
        opacity: .49;
      }

      .cls-23 {
        fill: #f28f8f;
      }

      .cls-24 {
        fill: #37474f;
      }

      .cls-6, .cls-25 {
        opacity: .3;
      }

      .cls-26 {
        fill: #c8856a;
      }

      .cls-27 {
        fill: #2ecd7b;
      }

      .cls-28 {
        fill: #fafafa;
      }

      .cls-29 {
        fill: #2eb77a;
      }

      .cls-30 {
        opacity: .34;
      }

      .cls-31 {
        opacity: .6;
      }

      .cls-32 {
        opacity: .5;
      }

      .cls-33 {
        opacity: .18;
      }

      .cls-34 {
        opacity: .1;
      }

      .cls-35 {
        opacity: .15;
      }

      .cls-36 {
        opacity: .07;
      }

      .cls-37 {
        fill: #f5f5f5;
      }

      .cls-38 {
        fill: #f0997a;
      }

      .cls-39 {
        fill: #f0f0f0;
      }

      .cls-40 {
        fill: #ffa8a7;
      }

      .cls-41 {
        fill: #2ec780;
      }

      .cls-42 {
        fill: #2eb181;
      }

      .cls-43 {
        fill: #455a64;
      }

      .cls-44 {
        fill: #e0e0e0;
      }

      .cls-45 {
        fill: #2ebc7b;
      }

      .cls-46 {
        fill: #9a4a4d;
      }
    </style>
  </defs>
  <g id="Speech_Bubble_1" data-name="Speech Bubble 1">
    <g>
      <g>
        <rect class="cls-44" x="96.76" y="90.65" width="37.22" height="6.28"/>
        <rect class="cls-44" x="96.76" y="217.65" width="37.22" height="6.28"/>
        <rect class="cls-44" x="101.28" y="99.54" width="28.18" height="115.67"/>
      </g>
      <g>
        <rect class="cls-44" x="178.3" y="90.65" width="37.22" height="6.28"/>
        <rect class="cls-44" x="178.3" y="217.65" width="37.22" height="6.28"/>
        <rect class="cls-44" x="182.82" y="99.54" width="28.18" height="115.67"/>
      </g>
      <g>
        <rect class="cls-44" x="346.36" y="90.65" width="37.22" height="6.28" transform="translate(729.94 187.58) rotate(180)"/>
        <rect class="cls-44" x="346.36" y="217.65" width="37.22" height="6.28" transform="translate(729.94 441.58) rotate(180)"/>
        <rect class="cls-44" x="350.88" y="99.54" width="28.18" height="115.67" transform="translate(729.94 314.76) rotate(180)"/>
      </g>
      <g>
        <rect class="cls-44" x="264.82" y="90.65" width="37.22" height="6.28" transform="translate(566.87 187.58) rotate(180)"/>
        <rect class="cls-44" x="264.82" y="217.65" width="37.22" height="6.28" transform="translate(566.87 441.58) rotate(180)"/>
        <rect class="cls-44" x="269.34" y="99.54" width="28.18" height="115.67" transform="translate(566.87 314.76) rotate(180)"/>
      </g>
      <g id="Tree">
        <g>
          <path class="cls-8" d="M432.64,144.03c.62,4.85-5.29,8.9-10.43,7.97.31,2.92-3.8,4.61-5.45,3.11,1.65,2.16,4.35,8.97,0,12.68-4.35,3.71-9.95,1.59-9.95,1.59,0,0-2.04,5.07-9.76,3.71-7.72-1.36-9.31-9.23-8.4-12.03-5.07,2.92-15.36.68-19.98-6.13-4.62-6.81-4.24-15.28-.3-19.14-2.69-2.54-1.83-6.56-.24-8.46,1.59-1.89,3.87-1.72,3.87-1.72,0,0-2.17-2.51.38-4.21-3.63-2.12-5.3-9.69.53-15.36,5.83-5.68,14.55-3.41,14.55-3.41,0,0-1.78-5.61,2.07-10.59,3.32-4.28,8.81-3.85,8.81-3.85,0,0-.24-4.02,3.7-4.23-2.28-4.14-.12-9.38,2.89-11.68,5.58-4.26,19.79-5.4,19.71,5.23,5.77-4.44,14.45,1.56,13.06,7.49,4.77-4.14,12.46,1.46,10.67,7.19,6.9-1.96,14.09,6.24,10.25,13.85,2.68-1.55,8.76-.44,8.6,4.69,3.48-1.06,7.34,1,8.32,4.63.98,3.63-.56,6.42-3.28,8.23,2.59-.38,4.18,3.95,2.45,5.22,5.07,0,8.51,10.62,2.32,14.13,3.56,2.5,5.34,17.67-5.55,23.8-10.9,6.13-26.56,2.42-27.36-7.53-4.62-1.14-6.56-6.11-3.46-8.83-3.03,1.21-7.72-2.57-8.01-6.35Z"/>
          <path class="cls-36" d="M471.46,166.73c10.9-6.13,9.11-21.3,5.55-23.8,6.19-3.51,2.75-14.13-2.32-14.13,1.73-1.27.14-5.6-2.45-5.22,2.72-1.82,4.27-4.6,3.28-8.23-.49-1.81-1.69-3.23-3.21-4.07,2.21,3.56,1.31,9.78-4.63,11.05-5.12,1.1-7.84-2.56-7.84-2.56,0,0-1.25,2.17-6.83,1.47-5.57-.69-8.36-6.19-6.88-10.62,2.62-4.43-1.47-9.84-6.77-9.02.25,11.15-9.39,14.52-18.48,10.16,4.43,11.15-5.25,16.56-10.16,11.64-1.64,4.1-7.05,3.61-9.51,1.15-2.46,2.62-10.16,0-10.16-6.23-4.59,5.74-12.79,4.1-13.44-1.97-3.49,4.58-7.86,2.01-8.32.21.45,2.18,1.61,3.95,3.09,4.81-2.56,1.7-.38,4.21-.38,4.21,0,0-2.28-.17-3.87,1.72-1.59,1.89-2.45,5.92.24,8.46-3.94,3.86-4.31,12.33.3,19.14,4.62,6.81,14.91,9.05,19.98,6.13-.91,2.8.68,10.67,8.4,12.03,7.72,1.36,9.76-3.71,9.76-3.71,0,0,5.6,2.12,9.95-1.59,4.35-3.71,1.65-10.52,0-12.68,1.65,1.49,5.76-.19,5.45-3.11,5.14.93,11.05-3.11,10.43-7.97.29,3.78,4.98,7.56,8.01,6.35-3.1,2.72-1.16,7.7,3.46,8.83.8,9.94,16.46,13.66,27.36,7.53Z"/>
          <path class="cls-8" d="M410.85,135.26s-9.79,2.9-12.51-4.11c-4.99,2.88-14.32,2.17-17.46-4.11-5.32,0-8.5-5.65-8.5-5.65-2.56,1.7-.38,4.21-.38,4.21,0,0-2.28-.17-3.87,1.72-1.59,1.89-2.45,5.92.24,8.46-.42.41-.78.88-1.12,1.38-1.63,4.27,3.98,7.51,7.47,5.47-1.33,4.35,3.62,17.4,17.4,11.96,8.22,5.2,16.55-1.09,15.47-12.57,4.1,0,6.04-4.47,3.26-6.77Z"/>
          <path class="cls-8" d="M462.93,146.86c4.22-5.03,3.02-10.27,3.02-10.27,0,0-4.14,6.02-12.81,2.33-8.66-3.69-3.99-12.23-3.99-12.23,0,0-6.65.54-5.44-5.29-2.15,1.07-5.44-.15-5.44-4.38-.95,7.32-7.12,10.86-14.86,9.18,5.2,1.93,4.83,5.96,1.21,8.84-4.1,4.1-3.6,14.37,6.23,14,1.28-1.39,2.02-3.14,1.78-5.01.29,3.78,4.98,7.56,8.01,6.35,0,0,0,0,0,0h0s2.83,2.52,6.21-.74c2.48,2.48,11.85,2.25,16.07-2.78Z"/>
        </g>
        <path class="cls-39" d="M451.85,165.55s7.74-11.31,7.32-12.19c-.43-.88-7.32,10.36-11.58,13.41-4.27,3.05-12.8,8.23-14.94,8.23s-2.29-2.59-1.52-7.62c.76-5.03.93-6.4,4.43-10.97,3.5-4.57,13.53-16.95,12.95-17.53-.58-.58-13.3,15.66-16.46,17.68-3.09,1.97-5.81-11.28-6.86-11.28s3.03,9.48,3.28,13.9c.26,4.42-.23,9.72-2.22,11.1-1.98,1.37-7.39-2.9-10.9-6.71-3.51-3.81-3.58-20.27-4.96-20.27s.88,15.11.88,16.57c0,3.18-13.4-5.52-15.82-5.14-2.42.39,12.34,5.65,18.14,11.28,5.05,4.9,5.92,6.44,7.64,10.08,1.83,3.85,2.36,8.83,2.36,23s-3.82,53.88-3.82,62.66c0,1.17.77,2.33,2.31,3.22,3.08,1.78,8.07,1.78,11.15,0,1.54-.89,2.31-2.05,2.31-3.22h0c0-8.78-3.82-48.48-3.82-62.66s.57-19.47,4.78-22.46c4.21-2.99,11.39-8.29,14.57-9.24,3.18-.95,12.35.61,12.35,0s-11.58-1.83-11.58-1.83Z"/>
      </g>
      <g id="Tree-2" data-name="Tree">
        <g>
          <path class="cls-8" d="M47.71,144.03c-.62,4.85,5.29,8.9,10.43,7.97-.31,2.92,3.8,4.61,5.45,3.11-1.65,2.16-4.35,8.97,0,12.68,4.35,3.71,9.95,1.59,9.95,1.59,0,0,2.04,5.07,9.76,3.71,7.72-1.36,9.31-9.23,8.4-12.03,5.07,2.92,15.36.68,19.98-6.13,4.62-6.81,4.24-15.28.3-19.14,2.69-2.54,1.83-6.56.24-8.46-1.59-1.89-3.87-1.72-3.87-1.72,0,0,2.17-2.51-.38-4.21,3.63-2.12,5.3-9.69-.53-15.36s-14.55-3.41-14.55-3.41c0,0,1.78-5.61-2.07-10.59-3.32-4.28-8.81-3.85-8.81-3.85,0,0,.24-4.02-3.7-4.23,2.28-4.14.12-9.38-2.89-11.68-5.58-4.26-19.79-5.4-19.71,5.23-5.77-4.44-14.45,1.56-13.06,7.49-4.77-4.14-12.46,1.46-10.67,7.19-6.9-1.96-14.09,6.24-10.25,13.85-2.68-1.55-8.76-.44-8.6,4.69-3.48-1.06-7.34,1-8.32,4.63-.98,3.63.56,6.42,3.28,8.23-2.59-.38-4.18,3.95-2.45,5.22-5.07,0-8.51,10.62-2.32,14.13-3.56,2.5-5.34,17.67,5.55,23.8,10.9,6.13,26.56,2.42,27.36-7.53,4.62-1.14,6.56-6.11,3.46-8.83,3.03,1.21,7.72-2.57,8.01-6.35Z"/>
          <path class="cls-36" d="M8.88,166.73c-10.9-6.13-9.11-21.3-5.55-23.8-6.19-3.51-2.75-14.13,2.32-14.13-1.73-1.27-.14-5.6,2.45-5.22-2.72-1.82-4.27-4.6-3.28-8.23.49-1.81,1.69-3.23,3.21-4.07-2.21,3.56-1.31,9.78,4.63,11.05,5.12,1.1,7.84-2.56,7.84-2.56,0,0,1.25,2.17,6.82,1.47,5.57-.69,8.36-6.19,6.88-10.62-2.62-4.43,1.47-9.84,6.77-9.02-.25,11.15,9.39,14.52,18.48,10.16-4.43,11.15,5.25,16.56,10.16,11.64,1.64,4.1,7.05,3.61,9.51,1.15,2.46,2.62,10.16,0,10.16-6.23,4.59,5.74,12.79,4.1,13.44-1.97,3.49,4.58,7.86,2.01,8.32.21-.45,2.18-1.61,3.95-3.09,4.81,2.56,1.7.38,4.21.38,4.21,0,0,2.28-.17,3.87,1.72,1.59,1.89,2.45,5.92-.24,8.46,3.94,3.86,4.31,12.33-.3,19.14-4.62,6.81-14.91,9.05-19.98,6.13.91,2.8-.68,10.67-8.4,12.03-7.72,1.36-9.76-3.71-9.76-3.71,0,0-5.6,2.12-9.95-1.59-4.35-3.71-1.65-10.52,0-12.68-1.65,1.49-5.76-.19-5.45-3.11-5.14.93-11.05-3.11-10.43-7.97-.29,3.78-4.98,7.56-8.01,6.35,3.1,2.72,1.16,7.7-3.46,8.83-.8,9.94-16.46,13.66-27.36,7.53Z"/>
          <path class="cls-8" d="M69.49,135.26s9.79,2.9,12.51-4.11c4.99,2.88,14.32,2.17,17.46-4.11,5.32,0,8.5-5.65,8.5-5.65,2.56,1.7.38,4.21.38,4.21,0,0,2.28-.17,3.87,1.72,1.59,1.89,2.45,5.92-.24,8.46.42.41.78.88,1.12,1.38,1.63,4.27-3.98,7.51-7.47,5.47,1.33,4.35-3.62,17.4-17.4,11.96-8.22,5.2-16.55-1.09-15.47-12.57-4.1,0-6.04-4.47-3.26-6.77Z"/>
          <path class="cls-8" d="M17.41,146.86c-4.22-5.03-3.02-10.27-3.02-10.27,0,0,4.14,6.02,12.81,2.33,8.66-3.69,3.99-12.23,3.99-12.23,0,0,6.65.54,5.44-5.29,2.15,1.07,5.44-.15,5.44-4.38.95,7.32,7.12,10.86,14.86,9.18-5.2,1.93-4.83,5.96-1.21,8.84,4.1,4.1,3.6,14.37-6.23,14-1.28-1.39-2.02-3.14-1.78-5.01-.29,3.78-4.98,7.56-8.01,6.35,0,0,0,0,0,0h0s-2.83,2.52-6.21-.74c-2.48,2.48-11.85,2.25-16.07-2.78Z"/>
        </g>
        <path class="cls-39" d="M28.49,165.55s-7.74-11.31-7.32-12.19c.43-.88,7.32,10.36,11.58,13.41,4.27,3.05,12.8,8.23,14.94,8.23s2.29-2.59,1.52-7.62c-.76-5.03-.93-6.4-4.43-10.97-3.5-4.57-13.53-16.95-12.95-17.53.58-.58,13.3,15.66,16.46,17.68,3.09,1.97,5.81-11.28,6.86-11.28s-3.03,9.48-3.28,13.9c-.26,4.42.23,9.72,2.22,11.1,1.98,1.37,7.39-2.9,10.9-6.71,3.51-3.81,3.58-20.27,4.96-20.27s-.88,15.11-.88,16.57c0,3.18,13.4-5.52,15.82-5.14,2.42.39-12.34,5.65-18.14,11.28-5.05,4.9-5.92,6.44-7.64,10.08-1.83,3.85-2.36,8.83-2.36,23s3.82,53.88,3.82,62.66c0,1.17-.77,2.33-2.31,3.22-3.08,1.78-8.07,1.78-11.15,0-1.54-.89-2.31-2.05-2.31-3.22h0c0-8.78,3.82-48.48,3.82-62.66s-.57-19.47-4.78-22.46c-4.21-2.99-11.39-8.29-14.57-9.24-3.18-.95-12.35.61-12.35,0s11.58-1.83,11.58-1.83Z"/>
      </g>
      <path id="Floor" class="cls-28" d="M72.02,236.92c-92.87,53.62-92.86,140.55,0,194.16,92.87,53.62,243.44,53.62,336.31,0,92.87-53.62,92.86-140.55,0-194.16-92.87-53.62-243.44-53.62-336.31,0Z"/>
      <path id="Shadow" class="cls-44" d="M278.47,341.09c25.56,14.76,25.56,38.69,0,53.44-25.56,14.76-67.01,14.76-92.57,0-25.56-14.76-25.56-38.69,0-53.44s67-14.76,92.57,0Z"/>
      <path id="Shadow-2" data-name="Shadow" class="cls-44" d="M136.56,378.53c25.56,14.76,25.56,38.69,0,53.44-25.56,14.76-67,14.76-92.57,0-25.56-14.76-25.56-38.69,0-53.44,25.56-14.76,67-14.76,92.57,0Z"/>
      <path id="Shadow-3" data-name="Shadow" class="cls-44" d="M431.2,377.22c25.56,14.76,25.56,38.69,0,53.44-25.56,14.76-67,14.76-92.57,0-25.56-14.76-25.56-38.69,0-53.44,25.56-14.76,67-14.76,92.57,0Z"/>
      <g id="Character">
        <g id="Bottom">
          <g>
            <path class="cls-1" d="M50.4,382.93c1.15-12.24.26-18.31,1.69-37.43h0c.2-4.9.48-10.16.91-14.82,1.44-15.69,3.98-21.01,4.27-24.04,0,0,.94-24.44,2.69-58.79.83-16.16,5.62-20.96,9.55-29.47l44.51.95c4.52,21.29,4.95,67.51,4.34,89.34-.31,11.13-5.13,66.67-5.25,68.04-.42,4.85-.04,6.78,1.82,8.86,3.9,4.36,9.59,8.56,14.51,12.4-.76,1.9-7.65,2.59-10.59,1.07-4.7-2.43-9.35-6.07-10.94-7.31-4.04-3.13-9.24-5.68-9.21-10.3,0-.58-.15-.74-.12-.83-.02-2.7-5.53-39.66-5.86-48.91-.28-7.96.97-21.42.97-21.42l-4.41-33.77s-3.58,19.83-7.07,33.35c-2.84,11-7.53,29.78-10.75,43.33h0c-3.15,15.62-6.92,23.72-7.8,31.56-.26,1.87-3.3,20.18-4.27,24.37-.97,4.19-10.15,4.11-10.58-3.15-.29-4.83,1.38-20.72,1.59-23.02Z"/>
            <path class="cls-46" d="M89.28,276.49l4.27-24.2s14.53-1.41,19.91-6.36c0,0-6.85,9.24-16.71,10.56l-4.56,20.04,1.47,33.45-4.37-33.48Z"/>
          </g>
          <g>
            <path class="cls-12" d="M136.96,403.93c.25,0,.61,2.81-.79,3.98-1.61,1.36-6.31,3.57-12.48,2.7-6.17-.86-9.5-2.81-11.95-4.91s-5.89-5.05-8.68-5.7c-2.59-.6-5.4-1.81-6.22-2.62-.82-.81-.67-4.38-.67-4.38l40.79,10.92Z"/>
            <path class="cls-24" d="M98.48,379.29s-.47.01-.63.83c-.2.98-.44,3.84-.86,5.45-.59,2.24-1.02,6.83-.7,8.67.32,1.83,4.54,3.15,7.24,4.21,2.75,1.08,5.93,3.28,8.71,5.63,2.88,2.43,8.96,4.89,12.99,4.99,6.15.15,10.15-1.47,11.4-3.67,1.55-2.72,1.25-5.21-5.78-8.56-1.33-.63-6-3.46-7.59-4.49-1.68-1.08-3.29-2.28-4.77-3.63-.75-.68-1.46-1.4-2.13-2.16-.59-.67-1.42-1.48-1.77-2.3-.08-.19-.13-.41-.2-.6-.2-.56-.34-1.08-.44-1.66-.11-.59-.17-1.45-.73-1.8-.64-.41-1.8-.37-2.52-.33-.91.06-2.94.49-3.83.71-1.58.4-2.02.84-2.65,1.81-.48.74-.56,1.69-.61,2.55-.02.41-.02.83-.03,1.24,0,.18.07.49-.18.42-.23-.07-.49-.69-.58-.9-.19-.46-.31-.96-.52-1.42-.24-.52-.51-1.06-.86-1.51-.33-.42-.69-.82-1.11-1.15-.38-.3-.87-.46-1.2-.8-.43-.43-.61-1.19-.64-1.54Z"/>
            <path class="cls-11" d="M131.97,397.39c-8.91.52-12.65,6.88-13.06,10.28,2.2.8,4.47,1.35,6.31,1.4,6.15.15,10.4-1.47,11.66-3.66,1.46-2.56,1.38-5.55-4.9-8.01Z"/>
            <g>
              <path class="cls-39" d="M117.75,398.24c-.1,0-.19-.03-.27-.1-.18-.15-.21-.43-.05-.61,1.26-1.5,5.73-4.37,8.96-3.98.24.03.41.24.38.48-.03.24-.24.41-.48.38-3.02-.35-7.19,2.48-8.19,3.68-.09.1-.21.16-.34.16Z"/>
              <path class="cls-39" d="M113.93,395.96c-.1,0-.19-.03-.27-.1-.18-.15-.21-.43-.05-.61,1.26-1.51,5.73-4.38,8.96-3.98.24.03.41.24.38.48-.03.24-.23.41-.48.38-3.02-.36-7.19,2.48-8.19,3.68-.09.1-.21.16-.34.16Z"/>
              <path class="cls-39" d="M110.41,393.37c-.1,0-.19-.03-.27-.1-.18-.15-.21-.43-.05-.61,1.26-1.51,5.74-4.37,8.96-3.98.24.03.41.25.38.48-.03.24-.24.41-.48.38-3.01-.35-7.19,2.48-8.19,3.68-.09.1-.21.16-.34.16Z"/>
              <path class="cls-39" d="M106.95,390.78c-.09,0-.19-.03-.27-.1-.19-.15-.22-.43-.06-.61,1.73-2.14,6.47-4.41,9.7-4.02.24.03.41.25.38.48-.03.24-.24.4-.48.38-2.91-.35-7.39,1.81-8.92,3.7-.09.11-.21.16-.34.16Z"/>
            </g>
          </g>
          <g>
            <path class="cls-12" d="M62.69,411.76c-.35,4.43-1.1,7.36-2.73,9.93-1.63,2.57-4.62,3.32-7.61,2.5-2.99-.83-6.8-2.94-7.58-6.79-.78-3.85-1.23-6.48-.46-10.58l18.38,4.95Z"/>
            <path class="cls-24" d="M50.7,379.25c-1.24.07-1.7,6.14-2.54,12.09-.9,6.38-2.87,8.98-3.66,14.21-.91,5.97.03,8.67,2.05,12.33,2.02,3.67,9.37,7.38,13.15,2.27,3.07-4.16,3.3-8.85,3.15-14.84-.15-6.19.37-10.46.72-15.15.34-4.48,1.96-9.47.89-10-.19,1-.39,1.8-.49,2.45-.12.79-.48,1.81-.79,2.57-.13.33-.42.67-.52.13-.07-.37-.02-.75.02-1.12.22-1.65-.61-1.8-1.06-1.94-.97-.3-4.8-.85-5.73-.94-.95-.08-4.21-.3-4.65.23-.29.36-.35.97-.45,1.72-.12.9-.35,1.55-.37,1.27-.05-.65.05-1.98.08-2.38.02-.39.09-1.22.11-1.61.01-.38.06-.92.1-1.3Z"/>
            <path class="cls-11" d="M44.08,409c-.29,3.71.54,6.28,2.12,9.15,2.02,3.67,9.97,7.4,13.74,2.29,1.88-2.54,2.43-5.58,2.75-8.69-2.11-4.04-15.08-6.08-18.61-2.75Z"/>
            <g>
              <path class="cls-39" d="M60.13,405.19c-.05,0-.1-.02-.15-.05-.05-.02-5.73-2.52-11.34-1.35-.25.05-.49-.11-.54-.36-.05-.25.11-.49.36-.54,5.93-1.24,11.73,1.32,11.94,1.42.23.12.32.39.2.62-.09.18-.28.27-.47.25Z"/>
              <path class="cls-39" d="M49,399.34c-.17-.02-.33-.14-.38-.32-.08-.24.06-.5.3-.58,5.6-1.76,11.7,1.19,11.93,1.32.22.12.3.4.18.62-.12.22-.41.3-.62.18-.05-.03-6-2.89-11.21-1.25-.06.02-.13.03-.19.02Z"/>
              <path class="cls-39" d="M49.29,395.13c-.17-.02-.32-.14-.38-.31-.08-.24.05-.5.29-.58,6.16-2.06,11.94,1.15,12.16,1.29.21.14.28.42.14.63-.14.21-.43.28-.63.14-.05-.03-5.64-3.11-11.37-1.19-.07.02-.14.03-.2.02Z"/>
              <path class="cls-8" d="M49.68,391c-.17-.02-.32-.13-.38-.3-.08-.24.04-.5.28-.59,5.77-2.02,12,1.28,12.24,1.42.22.13.29.41.16.63-.13.22-.41.29-.63.16-.05-.03-6.1-3.22-11.46-1.34-.07.02-.14.03-.21.02Z"/>
            </g>
          </g>
          <path class="cls-24" d="M66.4,218.31c-5.48,9.5-8.49,17.31-9.63,45.89-1.14,28.58-1.5,37.36-1.69,40.81-.19,3.45-3.6,8.52-4.35,24.57-.92,19.78-.15,35.38-.15,35.38,0,0,1.92,2.93,8.4,3.65,5.98.66,9.68-1.51,9.68-1.51,0,0,8.6-29.9,11.09-40.08,2.49-10.18,9.37-43.68,9.37-43.68l3.34,27.36s-2.03,9.33-.52,24.27c1.51,14.93,3.78,26.84,3.78,26.84,0,0,4.73,2.08,9.85,2.11s9.03-2.11,9.03-2.11c0,0,5.05-41.03,5.41-57.91.36-16.88.02-59.94-3.28-85.01l-50.36-.57Z"/>
          <path class="cls-12" d="M95.17,250.99l-6.04,32.35,3.34,27.36-1.08-27.68,5.35-26.53c4.09-.89,13.46-5.57,16.15-12.49-6.41,6.43-17.72,6.99-17.72,6.99ZM76.55,231.61c.78-2.71,1.59-5.41,2.5-8.12-1.58,2.39-2.79,5.01-3.83,7.67-1.05,2.66-1.88,5.4-2.62,8.16-.7,2.77-1.3,5.56-1.73,8.38-.44,2.82-.75,5.66-.75,8.53.74-2.76,1.43-5.51,2.12-8.25.7-2.74,1.36-5.48,2.09-8.21.69-2.73,1.44-5.45,2.2-8.17ZM72.51,229.47c.95-1.65,1.91-3.3,2.8-5.03-1.47,1.28-2.76,2.73-3.95,4.25-1.2,1.52-2.26,3.14-3.24,4.81-.95,1.69-1.82,3.43-2.49,5.25-.69,1.81-1.22,3.7-1.43,5.64l2.71-5.06c.92-1.66,1.82-3.31,2.78-4.94.93-1.65,1.9-3.27,2.84-4.92ZM66.81,337.79c-1.77,8.76-3.42,17.54-4.96,26.34,2.23-8.66,4.34-17.34,6.34-26.04,2.02-8.71,3.94-17.4,5.84-26.16,1.79-8.79,3.07-17.65,4.12-26.53,1.07-8.88,1.9-17.77,2.63-26.68-1.42,8.82-2.71,17.66-4.02,26.49-1.33,8.82-2.68,17.64-4.49,26.35-1.86,8.7-3.71,17.47-5.45,26.22ZM113.92,294.37c.1,3.88.24,7.77.1,11.6-.16,3.84-.48,7.73-.76,11.61l-.83,11.63c-.56,7.76-1.04,15.52-1.42,23.3,1.08-7.71,2.02-15.44,2.82-23.18.8-7.75,1.56-15.47,1.99-23.3.14-7.87-.36-15.62-.89-23.39-.55-7.77-1.32-15.52-2.36-23.24l.96,23.32c.13,3.88.3,7.77.39,11.65Z"/>
        </g>
        <g id="Top">
          <g>
            <path class="cls-1" d="M179.48,175.37c-.7-.42-1.56-.55-2.38-.49-1.33.09-2.57.62-3.87.9-1.97.44-5.15,1.17-7.1.51-.4-.13-1.18-.53-.49-.87.9-.45,1.84-.82,2.65-1.41.81-.59,1.49-1.46,1.58-2.46.03-.3,0-.63-.19-.87-.26-.34-.53-.25-.85-.13-.33.13-.69.2-1.04.28-.72.17-1.44.35-2.16.53-4.19,1.07-8.48,2.49-11.66,5.55-.46.45-3.52,4.11-5.4,6.14-1.6,1.88-11.77,11.06-11.77,11.06,0,0-4.98-5.78-8.62-9.84-6.47-7.24-8.98-10.12-11.26-12.54-2-2.12-5.33-4.69-9.11-5.19l2.49,26.33s12.35,11.39,15.96,14.32c7.42,6.02,9.94,7.74,13.92,5,4.27-2.94,7.15-6.06,11.41-13.57,3.48-6.13,4.33-7.58,5.55-9.44,1.03-1.58,3.52-1.46,4.85-1.49,2.43-.05,3.06-.16,5.43-.72,1.56-.37,3.08-.91,4.5-1.67.59-.32,1.55-.73,1.93-1.31.36-.53.44-1.21.87-1.73.49-.58,1.24-.92,1.66-1.56.33-.5.41-1.11.61-1.68.3-.9,1.02-1.27,1.82-1.67.39-.19.81-.37,1.07-.72.42-.56.08-.99-.4-1.28Z"/>
            <path class="cls-9" d="M106.31,165.33c5.03.75,6.37,1.52,10.57,5.66s9.36,9.64,9.36,9.64c0,0-2.02,6.81-7.12,12.28-1.97,2.11-6.8,4.83-6.8,4.83l-5-3.66-1.01-28.75Z"/>
            <path class="cls-38" d="M136.82,194.11h0s-.75-.7-1.35-1.56c-2.84,2.72-4.37,7.47-3.21,11.45-.02-1.6.89-6.31,4.56-9.88Z"/>
            <path class="cls-38" d="M163.39,177.36c-1.47,2.01-4.47,3.91-6,4.27,0,0,2.22.4,3.76-.73,1.69-1.24,2.1-2.6,2.24-3.54Z"/>
          </g>
          <path id="Chest" class="cls-43" d="M60.53,231.51c2.14-8.87,4.01-15.65,4.03-17.62.09-8.54-1.91-19.82-2.55-24.79-1.38-10.83,1.74-20.98,4.3-23.06l12.49-3.01s14.53.31,16.9.6c1.17.14,10.6,1.7,10.6,1.71,0,0,3.42,4.45,7.36,10.65,6.41,10.09,6.92,14.81,4.99,23.7-2.65,12.19-.24,24.29-.44,33.6-7.84,8.6-37.99,12.97-57.69-1.77Z"/>
          <path class="cls-12" d="M72.64,123.45c-.06.27-1.53,1.07-1.8,1.32-.52.48-.98,1.02-1.36,1.61-.83,1.29-1.26,2.78-1.53,4.27-.45,2.54-.34,5.14-.53,7.7-.19,2.52-.76,4.89-1.33,7.36-.49,2.14-.98,4.32-.9,6.51.08,2.2.82,4.46,2.44,5.95-.51-2.15-.5-4.43.02-6.58.13,1.37.29,2.76.82,4.02.84,1.99,2.56,3.52,4.47,4.51,1.92,1,4.04,1.52,6.15,1.98,3.44.75,7,1.13,10.5,1.03,2.18-.06,4.35-.23,6.51-.51,2.79-.36,5.64-.93,7.99-2.47,2.35-1.54,4.13-4.24,3.84-7.04.79,1.35,1.19,2.93,1.11,4.49,1.53-1.67,2.2-4,2.14-6.26-.06-2.26-.81-4.45-1.83-6.47-.65-1.28-1.41-2.51-1.88-3.87-.38-1.12-.68-2.7-.15-3.83.38-.8,1.01-1.53,1.4-2.35,1.08-2.22,1.82-4.71,1.65-7.2-.36-5.14-3.39-11.86-12.77-13.97-7.82-1.76-22.85-.36-24.98,9.79Z"/>
          <g>
            <path class="cls-18" d="M73.41,244.12l-21.43-9.29s-5.09,13.32-6.79,23.84c-1.33,8.2,1.1,12.8,6.31,16.75s14.55,10.02,19.01,9.77c4.47-.26,9.62-2.51,11.35-6.18s1.71-36.93,1.71-36.93l-10.17,2.04Z"/>
            <path class="cls-10" d="M73.38,244.12l-21.43-9.29s-5.09,13.32-6.79,23.84c-1.33,8.2,1.1,12.8,6.31,16.75s14.55,10.02,19.01,9.77c4.47-.26,9.62-2.51,11.35-6.18s1.71-36.93,1.71-36.93l-10.17,2.04Z"/>
            <path class="cls-6" d="M68.73,282.18c.09,2,.89,3,4.41,2.64.02,0,.03,0,.05-.01.15-.05.31-.08.48-.12,3.51-.88,6.87-2.86,8.21-5.69,1.74-3.67,1.71-36.93,1.71-36.93l-10.17,2.04c-2.61,13.49-4.8,35.43-4.68,38.06Z"/>
            <path class="cls-29" d="M83.58,242.08c-9.95-5.2-23.59-12.39-27.12-11.41s-5.61,5.41-6.63,9.35,2.52,13.48,5.06,15.17c2.54,1.69,12.63-2.09,15.07-4.71,2.44-2.62,3.45-6.36,3.45-6.36l10.17-2.04Z"/>
            <g>
              <path class="cls-18" d="M106.31,165.33l-8.86-1.44c4.51,9.3-.51,30.67-6.47,45.93-5.96,15.26-17.57,34.3-17.57,34.3l10.17-2.04s9.9-15.88,15.86-31.14c5.96-15.26,11.38-36.3,6.87-45.61Z"/>
              <path class="cls-22" d="M106.31,165.32l-8.86-1.44c4.51,9.3-.51,30.67-6.47,45.93-5.96,15.26-17.57,34.3-17.57,34.3l10.17-2.04s9.9-15.88,15.86-31.14c5.96-15.26,11.38-36.3,6.87-45.61Z"/>
            </g>
          </g>
          <g id="Head">
            <path class="cls-1" d="M76.83,149.9c-2.07.34-4.01-.71-5.24-2.08-2.72-3.06-2.92-6.12-1.58-8.13,1.1-1.65,3.75-2.67,5.56-1.5,1.94,1.25,1.99,2.24,2.7,3.62.74,1.42,2.65.35,2.12-5.16,3.86-1.69,3.38-7.99,5.49-10.51,3.32-3.95,8.62-2.8,10.33-1.82,1.57-1.2,4.67-1.74,7.26-.31,2.54,1.4,4.19,4.28,4.9,14.07.72,9.98-1.17,16.57-3.56,18.64-1.64,1.42-4.66,2.34-8.22,2.06l-.08,4.95s4.3,6.47-8.69,4.27c-6.4-1.08-9.03-4.53-9.03-4.53l.23-15.1s-.24,1.2-2.21,1.52Z"/>
            <path class="cls-38" d="M96.61,158.79c-5.13-.3-11.99-2.24-13.76-5.53.95,3.53,4.54,5.42,7.41,6.28,3.49,1.04,6.28,1.2,6.28,1.2l.08-1.95Z"/>
            <g>
              <path class="cls-7" d="M98.44,148.59c-.35,1.55-1.91,2.53-3.49,2.19-1.58-.34-2.58-1.88-2.23-3.43l5.73,1.24Z"/>
              <path class="cls-23" d="M92.67,148.29c.14,1.19,1.01,2.22,2.27,2.49.35.08.7.08,1.04.03-.21-1.59-1.69-2.72-3.31-2.52Z"/>
            </g>
            <g>
              <path class="cls-12" d="M105.57,137.36c.29.88-.32,1.16-1.16,1.44-.84.28-1.6.45-1.89-.42-.29-.88.15-1.81.99-2.09.84-.28,1.76.2,2.06,1.08Z"/>
              <path class="cls-12" d="M102.71,136.59c.37-.21.8-.33,1.21-.42.41-.09.84-.12,1.25-.05.69.11,1.06.28,1.27.39.03.01.06.11,0,.1-.34-.04-.64-.1-1.14-.12-.42-.02-.99.06-1.4.15-.64.15-.88.23-1.59.57-.17.08-.49.25-.52.28-.05.04-.09-.09-.06-.13.21-.33.64-.57.97-.76Z"/>
            </g>
            <g>
              <path class="cls-12" d="M89.33,137.6c-.21.9.42,1.12,1.29,1.32.87.2,1.63.3,1.85-.6.21-.9-.32-1.79-1.19-1.99-.87-.2-1.74.37-1.95,1.26Z"/>
              <path class="cls-12" d="M92.1,136.57c-.39-.18-.83-.26-1.25-.31-.41-.05-.84-.04-1.25.06-.68.17-1.03.38-1.23.5-.03.02-.05.11,0,.1.34-.07.63-.16,1.12-.23.41-.06,1-.03,1.41.02.65.09.9.15,1.64.42.17.06.51.21.54.23.05.03.08-.1.05-.14-.24-.31-.69-.51-1.04-.67Z"/>
            </g>
            <g>
              <path class="cls-12" d="M105.69,131.79l-3.76-1.32c.34-1.05,1.46-1.6,2.5-1.23,1.04.36,1.61,1.51,1.27,2.55Z"/>
              <path class="cls-12" d="M91.71,130.4l-3.81,1.92c-.59-1.02-.21-2.28.84-2.81,1.05-.53,2.38-.13,2.96.89Z"/>
              <g>
                <path class="cls-24" d="M110.45,132.92c-.24-.03-.49-.05-.75-.07-2.42-.19-5.58-.19-7.45.4-2.35.75-3.15,1.54-4.47,1.57-1.41.03-2.34-.73-4.91-1.36-2.05-.5-5.42-.35-7.99-.05-.28.03-.54.07-.8.1-.44.06-.89.63-.83,1.28.06.65.6,1.16.83,1.45.1.13.2.32.29.59.32,1.01.58,2.96,1.16,4.03.23.43.57.96,1.09,1.43.17.15.35.29.54.42.1.06.2.13.31.19.27.15.57.28.91.39.05.02.1.03.15.04.08.02.16.04.24.06.08.02.17.04.25.05.25.05.51.08.8.1.11.01.22.01.34.02.14,0,.28,0,.42,0,3.28-.06,4.57-1.58,5.32-3.14.74-1.55.43-3.72,1.94-3.75.05,0,.1,0,.14,0,.05,0,.09,0,.13.02,1.13.22,1.08,2.22,1.85,3.63.3.54.66,1.08,1.14,1.54.09.08.17.16.27.24.05.04.09.08.14.11.05.04.1.07.15.11.04.03.09.06.13.09.08.05.11.07.15.09.04.02.08.04.12.06.03.02.05.03.08.04.39.2.82.36,1.33.47.04,0,.08.02.12.02.47.09,1.01.13,1.6.12,3.07-.08,4.04-1.82,4.49-2.92.45-1.1.55-3.05.75-4.08.04-.23.14-.4.25-.54.21-.25.61-.86.62-1.51,0-.65-.47-1.23-.88-1.28ZM95,139.01c-.11.59-.37,1.45-1.04,2.16h0c-.67.72-1.75,1.29-3.51,1.3-1.78.01-2.85-.67-3.51-1.48-.04-.05-.08-.1-.12-.15-.04-.05-.07-.1-.11-.15-.03-.05-.06-.09-.09-.14-.03-.04-.05-.08-.08-.13-.02-.03-.04-.07-.06-.1-.02-.03-.04-.06-.05-.09-.03-.05-.05-.1-.08-.15h0c-.07-.16-.14-.3-.19-.45,0,0,0,0,0-.01-.03-.09-.07-.18-.1-.27-.05-.16-.1-.3-.13-.43,0-.03-.02-.06-.02-.08,0-.03-.02-.05-.02-.08-.3-1.07-.7-3.17-.16-3.66.52-.47,2.01-1.02,4.46-.84.08,0,.17,0,.26.02.38.03.75.09,1.12.16.15.03.29.06.44.09.39.09.76.19,1.1.31.12.04.23.08.34.12.13.05.25.1.37.16.02.01.05.02.07.03.05.02.09.04.13.07.35.17.61.36.76.55.52.65.44,2.04.22,3.24ZM109.2,138.23c-.15.84-.47,2.66-2.14,3.49-.48.24-1.07.39-1.8.42-1.93.08-3.06-.66-3.72-1.53,0,0,0-.01-.01-.02-.03-.03-.05-.07-.07-.1-.03-.04-.05-.08-.08-.11-.01-.02-.03-.04-.04-.06-.04-.06-.07-.11-.1-.17-.04-.07-.07-.13-.11-.2-.02-.03-.03-.06-.05-.1,0-.02-.02-.04-.03-.05-.01-.03-.02-.05-.04-.08,0-.02-.02-.04-.03-.06-.13-.29-.21-.56-.27-.8-.31-1.19-.5-2.58-.07-3.24.43-.67,2.19-1.43,3.92-1.68.4-.06.77-.09,1.12-.11.05,0,.09,0,.13,0,.05,0,.1,0,.14,0,.13,0,.26,0,.39,0,.05,0,.09,0,.14,0,.06,0,.12,0,.18.01.1,0,.21.01.31.03.2.02.39.05.57.08.05,0,.09.02.13.03.01,0,.02,0,.03,0,.03,0,.06.01.09.02.05,0,.09.02.14.03.06.01.11.03.16.05.1.03.19.06.27.1.02,0,.03.01.05.02.27.11.48.23.62.35.55.46.35,2.58.16,3.66Z"/>
                <path class="cls-38" d="M103.05,143.67l-5.61,2.25-1.04-7.04c.22-1.04.45-2.12,1.37-2.18l5.29,6.98Z"/>
                <path class="cls-24" d="M84.24,134.34l-8.66,3.85c.43.29.68.49,1.3,1.07l7.54-3.17-.18-1.75Z"/>
              </g>
            </g>
          </g>
          <g id="Arm">
            <g>
              <path class="cls-1" d="M66.32,166.04c-7.9,2.02-10.98,4.05-13.26,9.79-2.97,7.5-9.52,25.07-11.64,33.85-1.14,4.72-1.91,6.86,2.34,11.92,3.52,4.2,12.16,11.36,20.07,16.87,1.56,1.09,6.48,4.95,7.97,5.77,9.05,4.99,19.65,3.97,19.65,3.97l-9.9-6.28-1.72-3.43-20.32-24.22s7.59-20.25,9.6-25.94c2.01-5.7,3.16-18.57-2.8-22.29Z"/>
              <path class="cls-38" d="M59.51,214.27c-2.82-2.95-6.99-3.04-6.99-3.04,0,0,3.13-1.43,7.75,1.09l-.76,1.96Z"/>
            </g>
            <g>
              <g class="cls-21">
                <path class="cls-18" d="M72.57,233.67l-.04.94c-.04.95.43,1.85,1.23,2.36l24.7,15.68c.4.25.85.39,1.32.41.46.02.92-.08,1.34-.3l47.64-24.82c.84-.44,1.39-1.3,1.43-2.24l.03-.65-50.36,26.24-27.28-17.62Z"/>
              </g>
              <g class="cls-21">
                <path class="cls-18" d="M72.57,233.67l-.04.94c-.04.95.43,1.85,1.23,2.36l24.7,15.68c.4.25.85.39,1.32.41.46.02.92-.08,1.34-.3l47.64-24.82c.84-.44,1.39-1.3,1.43-2.24l.03-.65-50.36,26.24-27.28-17.62Z"/>
              </g>
              <g class="cls-21">
                <path class="cls-18" d="M73,233.67l-.04.94c-.04.95.43,1.85,1.23,2.36l24.7,15.68c.4.25.85.39,1.32.41.46.02.92-.08,1.34-.3l47.64-24.82c.84-.44,1.39-1.3,1.43-2.24l.03-.65-50.36,26.24-27.28-17.62Z"/>
              </g>
              <path class="cls-41" d="M150.21,225.05l-26.87-17.1c-.48-.3-1.08-.33-1.58-.07l-49.01,25.53c-.24.13-.26.46-.03.61l27.12,17.27,50.36-26.24Z"/>
              <g class="cls-20">
                <path class="cls-11" d="M150.21,225.02l-26.87-17.1c-.48-.3-1.08-.33-1.58-.07l-49.01,25.53c-.24.13-.26.46-.03.61l27.12,17.27,50.36-26.24Z"/>
              </g>
              <polygon class="cls-45" points="100.13 248.71 85.64 239.49 129.75 216.52 144.33 225.69 100.13 248.71"/>
              <g class="cls-30">
                <polygon class="cls-11" points="100.18 248.71 85.68 239.49 129.8 216.52 144.37 225.69 100.18 248.71"/>
              </g>
              <polygon class="cls-45" points="93.42 224.78 93.69 224.95 100.79 229.47 114.07 222.55 114.35 222.41 106.98 217.72 93.42 224.78"/>
              <g class="cls-21">
                <polygon class="cls-18" points="93.7 224.79 100.8 229.31 114.08 222.39 106.97 217.87 93.7 224.79"/>
              </g>
              <g class="cls-21">
                <path class="cls-18" d="M99.92,251.29l-.08,1.77c.46.02.92-.08,1.34-.3l47.64-24.82c.84-.44,1.39-1.3,1.43-2.24l.03-.65-50.36,26.24Z"/>
              </g>
              <g class="cls-21">
                <path class="cls-18" d="M100.28,251.29l-.08,1.77c.46.02.92-.08,1.34-.3l47.64-24.82c.84-.44,1.39-1.3,1.43-2.24l.03-.65-50.36,26.24Z"/>
              </g>
              <g class="cls-22">
                <path d="M100.28,251.29l-.08,1.77c.46.02.92-.08,1.34-.3l47.64-24.82c.84-.44,1.39-1.3,1.43-2.24l.03-.65-50.36,26.24Z"/>
              </g>
              <path class="cls-18" d="M100.58,251.72c.86.38,1.87.36,2.72-.09l47.43-24.71c.83-.43,1.43-1.22,1.63-2.13l6.38-29.99c.04-.17.06-.34.06-.51.04-.84-.26-1.66-.83-2.28l-49.29,25.68c-.62.32-1.06.9-1.2,1.58l-6.89,32.46Z"/>
              <g class="cls-21">
                <path class="cls-11" d="M100.58,251.72c.86.38,1.87.36,2.72-.09l47.43-24.71c.83-.43,1.43-1.22,1.63-2.13l6.38-29.99c.04-.17.06-.34.06-.51.04-.84-.26-1.66-.83-2.28l-49.29,25.68c-.62.32-1.06.9-1.2,1.58l-6.89,32.46Z"/>
              </g>
              <path class="cls-42" d="M99.85,251.29l.31.2c.14.09.28.16.42.23l6.89-32.46c.15-.68.59-1.26,1.2-1.58l49.29-25.68c-.18-.19-.39-.37-.62-.52l-49.39,25.73c-.62.32-1.06.9-1.2,1.58l-6.9,32.5Z"/>
              <g class="cls-31">
                <path class="cls-11" d="M99.85,251.29l.31.2c.14.09.28.16.42.23l6.89-32.46c.15-.68.59-1.26,1.2-1.58l49.29-25.68c-.18-.19-.39-.37-.62-.52l-49.39,25.73c-.62.32-1.06.9-1.2,1.58l-6.9,32.5Z"/>
              </g>
              <path class="cls-15" d="M107.95,218.28l-.73-.46c-.23.28-.4.61-.47.98l-6.9,32.5.31.2c.14.09.28.16.42.23l6.89-32.46c.08-.37.25-.7.48-.98Z"/>
              <path class="cls-15" d="M107.95,218.28l-.73-.46c-.23.28-.4.61-.47.98l-6.9,32.5.31.2c.14.09.28.16.42.23l6.89-32.46c.08-.37.25-.7.48-.98Z"/>
              <path class="cls-15" d="M107.95,218.28l-.73-.46c-.23.28-.4.61-.47.98l-6.9,32.5.31.2c.14.09.28.16.42.23l6.89-32.46c.08-.37.25-.7.48-.98Z"/>
              <path class="cls-27" d="M127.85,224.96c.43-2.01,2.63-4.6,4.92-5.8,2.29-1.19,3.81-.53,3.38,1.47-.43,2.01-2.63,4.6-4.92,5.8-2.29,1.19-3.81.53-3.38-1.47Z"/>
            </g>
            <path class="cls-1" d="M71.71,230.98c2.58,1.9,6.15.49,9.62.99,3.47.5,6.43,1.41,9.23,1.39s4.16.58,2.16,2.77c-2,2.2-7.59.79-9.11,1.44-1.53.65-2.52,3.07-.82,5.14,1.6,1.94-9.3-1.98-10.72-4.27-1.42-2.29-2.34-7.21-.35-7.46Z"/>
            <path class="cls-9" d="M66.32,166.04c-5.31.93-7.52,2.09-10.33,4.23-2.8,2.15-11.31,20.65-11.31,20.65,0,0,4.56,6.72,20.57,9.55,0,0,4.9-12.12,5.91-15.97,1.01-3.86,2.53-15.35-4.84-18.47Z"/>
          </g>
        </g>
      </g>
      <g id="Speech_Bubble" data-name="Speech Bubble">
        <g id="Speech_Bubble-2" data-name="Speech Bubble" class="cls-19">
          <g>
            <path class="cls-18" d="M49.43,115.09l1-3.11c.54-2.51-9.72,3.41-10.25,5.92l3.3,8.89c.13.29.32.51.55.65.73.45,3.4,1.95,3.63,2.1.73.45,1.81.17,2.11-.78l4.28-14.68c.26-1.24-2.1-.43-4.62,1.02Z"/>
            <path class="cls-16" d="M49.43,115.09l1-3.11c.54-2.51-9.72,3.41-10.25,5.92l3.3,8.89c.13.29.32.51.55.65.73.45,3.4,1.95,3.63,2.1.73.45,1.81.17,2.11-.78l4.28-14.68c.26-1.24-2.1-.43-4.62,1.02Z"/>
          </g>
          <g>
            <path class="cls-18" d="M63.37,55.32l-38.98,22.48c-.73.42-1.32,1.44-1.32,2.28v46.18c0,.84.59,1.86,1.32,2.27l2.41,1.36c.73.41,1.91.41,2.64-.01l38.98-22.48c.73-.42,1.32-1.44,1.32-2.28v-46.18c0-.84-.59-1.86-1.32-2.27l-2.41-1.36c-.73-.41-1.91-.41-2.64.01Z"/>
            <path class="cls-16" d="M63.37,55.32l-38.98,22.48c-.73.42-1.32,1.44-1.32,2.28v46.18c0,.84.59,1.86,1.32,2.27l2.41,1.36c.73.41,1.91.41,2.64-.01l38.98-22.48c.73-.42,1.32-1.44,1.32-2.28v-46.18c0-.84-.59-1.86-1.32-2.27l-2.41-1.36c-.73-.41-1.91-.41-2.64.01Z"/>
            <path class="cls-18" d="M68.43,58.18l-38.98,22.48c-.73.42-1.32,1.44-1.32,2.28v46.18c0,.84.59,1.18,1.32.76l14.92-8.6,2.74,7.6c.53,1.21,2.27,1.12,2.67-.14l3.64-12.69,15.01-8.66c.73-.42,1.32-1.44,1.32-2.28v-46.18c0-.84-.59-1.18-1.32-.76Z"/>
            <path class="cls-15" d="M68.43,58.18l-38.98,22.48c-.73.42-1.32,1.44-1.32,2.28v46.18c0,.84.59,1.18,1.32.76l14.92-8.6,2.74,7.6c.53,1.21,2.27,1.12,2.67-.14l3.64-12.69,15.01-8.66c.73-.42,1.32-1.44,1.32-2.28v-46.18c0-.84-.59-1.18-1.32-.76Z"/>
            <path class="cls-11" d="M46.88,81.36v3.56l-2.36,1.97v15.36c0,1.94.39,3.17,1.17,3.68.78.51,1.86.37,3.22-.41,1.38-.8,2.47-1.9,3.26-3.32.79-1.41,1.18-3.09,1.18-5.05v-15.36l-2.35.75v-3.56l9.14-5.28v3.56l-2.36,1.97v15.36c0,3.3-.82,6.32-2.45,9.05-1.63,2.73-3.77,4.86-6.42,6.39-2.64,1.52-4.77,1.86-6.39,1-1.62-.86-2.43-2.93-2.43-6.23v-15.36l-2.35.75v-3.56l2.35-1.36,4.42-2.55,2.36-1.36Z"/>
            <path class="cls-13" d="M69.73,58.7c-.1-.66-.64-.9-1.3-.52l-38.97,22.49c-.36.21-.69.57-.93.99l-5.04-2.91c.24-.4.55-.74.91-.94l38.98-22.49c.72-.42,1.9-.43,2.64-.01l2.41,1.36c.66.38,1.22,1.25,1.31,2.03Z"/>
          </g>
        </g>
      </g>
      <g id="Character-2" data-name="Character">
        <g id="Arm-2" data-name="Arm">
          <path class="cls-26" d="M251.99,137.73c8.52.21,13.48,4.88,16.26,13.74,2.72,8.66,6.63,21.85,7.55,28.02.92,6.17,3.84,34.13,3.84,34.13l-10.66.95-10.64-31.7-4.94-20.89-1.42-24.23Z"/>
          <g id="Book">
            <g>
              <polygon class="cls-15" points="288.68 229.56 288.63 205.26 256.37 186.21 256.42 210.51 288.68 229.56"/>
              <polygon class="cls-21" points="288.68 229.38 288.63 205.08 256.37 186.02 256.42 210.32 288.68 229.38"/>
            </g>
            <path class="cls-37" d="M287.75,205.49v23.52c-1.51.27-2.06.62-3.44,2.07l-.03-23.35s-.03-.41,3.47-2.23Z"/>
            <g>
              <path class="cls-4" d="M283.4,209.37c0-1.19.85-2.63,1.88-3.21l2.37-1.34c1.03-.58,1.86-.09,1.85,1.1v23.19s-.82.46-.82.46l-.05-22.86c0-.71-.49-1.01-1.11-.66l-2.12,1.22c-.62.35-1.12,1.21-1.12,1.93l.04,22.85-.92.52v-23.19Z"/>
              <path class="cls-3" d="M283.4,209.37c0-1.19.85-2.63,1.88-3.21l2.37-1.34c1.03-.58,1.86-.09,1.85,1.1v23.19s-.82.46-.82.46l-.05-22.86c0-.71-.49-1.01-1.11-.66l-2.12,1.22c-.62.35-1.12,1.21-1.12,1.93l.04,22.85-.92.52v-23.19Z"/>
            </g>
            <path class="cls-18" d="M283.39,232.56l-32.26-19.06v-23.19c.01-1.19.85-2.63,1.88-3.21l2.37-1.34c.51-.29.98-.32,1.31-.12l32.26,19.06c-.34-.2-.8-.17-1.31.12l-2.37,1.34c-1.03.58-1.87,2.02-1.88,3.21v23.19Z"/>
            <g>
              <path class="cls-5" d="M283.95,207.54c.34-.58.81-1.09,1.32-1.38l2.37-1.34c.51-.29.98-.32,1.31-.12l-32.26-19.06c-.34-.2-.8-.17-1.31.12l-2.37,1.34c-.51.29-.98.8-1.32,1.38l32.25,19.06Z"/>
              <path class="cls-17" d="M283.95,207.54c.34-.58.81-1.09,1.32-1.38l2.37-1.34c.51-.29.98-.32,1.31-.12l-32.26-19.06c-.34-.2-.8-.17-1.31.12l-2.37,1.34c-.51.29-.98.8-1.32,1.38l32.25,19.06Z"/>
            </g>
            <g>
              <path class="cls-18" d="M256.03,191.07c1.99-1.82,3.07-2.43,5.04-2.86l1.54.9c-1.97.43-3.05,1.04-5.04,2.86l-1.54-.9Z"/>
              <path class="cls-18" d="M277.22,203.55c1.99-1.82,3.03-2.41,5-2.84l1.54.9c-1.97.43-3.02,1.02-5.01,2.84l-1.53-.91Z"/>
            </g>
          </g>
          <path class="cls-26" d="M277.22,228.91c-.29,1.22-2.93,1.8-3.92,1.47-.99-.33-6.36-2.97-6.93-3.96-.58-.99-1.82-3.8-1.57-5.03.25-1.24.83-4.21,2.06-3.88,1.24.33,1.28,1.54,1.28,1.54,0,0,.59-2.23,1.6-2.06.78.13,1.72,1.25,1.61,2.47,1.37-.14,2.28.88,2.28,2.28,1.05.21,1.65,1.3,1.38,3.62-.04,1.23.59,2.6.59,2.6l1.62.96Z"/>
          <path class="cls-43" d="M251.65,137c7.39.63,11.96,2.77,14.96,9.4s7.49,23.95,7.49,23.95c0,0-4.8,6.09-17.98,5.09l-3.21-13.56-1.26-24.89Z"/>
        </g>
        <g id="Backpack">
          <path class="cls-12" d="M184.51,159.39c.49.22,5.48-.94,10.17-2.76v-17.75s-6.11.61-8.05,7.57c-3.34,12-2.12,12.94-2.12,12.94Z"/>
          <path class="cls-18" d="M221.23,130.61c4.42-.07,9.59,2.12,11.14,5.55.26.58,2.12,5.1,2.12,5.1,2.49,11.99,6.97,42.87,3.82,46.7-4.72,5.73-27.97,16.97-38.16,16.65-8.41-.26-16.52-7.91-17.69-10.22-3.84-7.58,6.23-49.78,8.9-54.02,4.32-6.87,24.24-9.66,29.88-9.76Z"/>
          <path class="cls-33" d="M238.3,187.96c-4.72,5.73-27.97,16.97-38.16,16.65-2.27-.07-4.52-.69-6.62-1.59,2.38,1.12,5.16-.02,5.94-3.1.78-3.11,2.06-27.82,2.06-49l32.97-9.65c2.49,11.99,6.97,42.87,3.82,46.7Z"/>
          <path class="cls-32" d="M190.3,142.63c.4-1.36.77-2.2,1.06-2.65,4.32-6.87,24.24-9.66,29.88-9.76,4.42-.07,9.59,2.12,11.14,5.55.25.56,2.12,5.1,2.12,5.1-8.83,4.69-30.92,9.45-33.27,8.6-2.88-1.05-10.92-6.85-10.92-6.85Z"/>
          <g>
            <path class="cls-18" d="M184.26,175.26c.21-.1,3.36-2.3,3.72-2.47.64-.3,9.54,6.17,10.34,7.24.56.75-.98,16.1-1.36,16.89-.14.28-3.58,2.18-3.72,2.47-.38.79-9.79-5.8-10.34-7.33-.55-1.54.41-16.36,1.35-16.8Z"/>
            <path class="cls-33" d="M184.26,175.19c.21-.1,3.36-2.3,3.72-2.47.64-.3,9.54,6.17,10.34,7.24.56.75-.98,16.1-1.36,16.89-.14.28-3.58,2.18-3.72,2.47-.38.79-9.79-5.8-10.34-7.33-.55-1.54.41-16.36,1.35-16.8Z"/>
            <path class="cls-18" d="M194.6,182.51c.56.75-.98,16.1-1.36,16.89-.38.79-9.79-5.8-10.34-7.33-.55-1.54.41-16.36,1.35-16.8.64-.3,9.54,6.17,10.34,7.24Z"/>
            <path class="cls-21" d="M187.98,172.8c-.36.16-3.5,2.37-3.72,2.47.63-.3,9.53,6.17,10.34,7.24l3.72-2.46c-.8-1.08-9.7-7.55-10.35-7.24Z"/>
            <path class="cls-25" d="M194.6,182.51c.56.75-.98,16.1-1.36,16.89-.38.79-9.79-5.8-10.34-7.33-.55-1.54.41-16.36,1.35-16.8.64-.3,9.54,6.17,10.34,7.24Z"/>
            <path class="cls-18" d="M198.32,180.04c-.66-.46-2.73.54-3.63,1.27-.9.72-1.97,4.22-4.25,4.7-2.28.48-5.36-2.62-5.97-4.56-.6-1.94-1.26-5.99-.11-7.38s3.08-2.11,4.65-1.19c1.57.92,9.17,5.4,9.31,7.17Z"/>
            <path class="cls-34" d="M198.32,180.32c-.66-.46-2.73.54-3.63,1.27-.9.72-1.97,4.22-4.25,4.7-2.28.48-5.36-2.62-5.97-4.56-.6-1.94-1.26-5.99-.11-7.38s3.08-2.11,4.65-1.19c1.57.92,9.17,5.4,9.31,7.17Z"/>
            <path class="cls-24" d="M188.41,181.8c.49.29.82,1,.73,1.59-.09.58-.56.84-1.05.56-.49-.27-.82-.98-.73-1.59.09-.6.56-.85,1.05-.56Z"/>
          </g>
          <path class="cls-24" d="M201.52,150.53s-3.11-2.13-6.88-4.31c-3.77-2.18-5.87-2.92-7.21,1.45-1.43,4.66-2.81,10.45-2.91,11.73-.72-.35-.64-1.65-.14-7.23.73-8.12-.3-11.75,8.11-15,13.04-5.04,23.98-9.01,31.44-7.34,7.46,1.67,9.21,5.85,10.56,11.05,0,0-9.06,8.23-32.97,9.65Z"/>
        </g>
        <g id="Bottom-2" data-name="Bottom">
          <g>
            <path class="cls-26" d="M261.13,339c.08-5.01,1.46-43.71,1.46-43.71l-21.03,11.42c2.24,22.42,4.43,33.04,4.6,36.91h0c-.03.09.12.24.11.79-.13,4.41,5.23,6.99,9.38,10.08,1.64,1.22,6.4,4.82,11.26,7.26,3.04,1.53,9.98.79,10.82-1-5.05-3.79-10.18-7.21-13.75-11.79-1.88-2.42-2.92-5.3-2.84-9.95Z"/>
            <g>
              <path class="cls-12" d="M285.69,366.89c.26,0,.57,2.7-.9,3.78-1.71,1.25-6.66,3.24-13.07,2.25-6.42-.99-9.85-2.93-12.36-5-2.51-2.07-6.03-4.98-8.93-5.67-2.69-.64-5.59-1.87-6.43-2.66-.84-.8-.61-4.2-.61-4.2l42.3,11.5Z"/>
              <path class="cls-24" d="M246.04,342.42s-.45-.06-.64.72c-.23.93-.54,3.65-1.01,5.18-.66,2.12-1.21,6.49-.91,8.25.3,1.76,4.67,3.12,7.46,4.21,2.85,1.1,6.11,3.29,8.96,5.6,2.95,2.39,9.24,4.91,13.44,5.11,6.41.31,10.61-1.14,11.97-3.2,1.67-2.55,1.16-5.2-6.1-8.58-1.37-.64-6.28-3.64-7.81-4.81-4.31-3.28-5.42-4.72-7.71-9.07-.28-.52-.46-1.26-1-1.94-.29-.37-.94-.92-2.4-.69-1.22.19-5.18.69-6.31,1.14-1,.4-2.42.85-2.44,2.01,0,.4.11.8.24,1.19.08.24.14.56-.09.69-.22.12-.5-.04-.68-.2-.75-.66-1.29-1.49-1.91-2.25-.33-.41-.7-.8-1.13-1.13-.39-.3-.89-.46-1.24-.79-.43-.42-.54-.76-.68-1.43Z"/>
              <path class="cls-28" d="M280.37,360.26c-9.3.26-13.08,6.49-13.58,9.72,2.27.83,4.63,1.41,6.55,1.5,6.41.31,10.88-1.12,12.23-3.19,1.58-2.41,1.31-5.52-5.19-8.04Z"/>
              <g>
                <path class="cls-39" d="M265.77,360.95c-.1,0-.2-.04-.28-.1-.19-.15-.21-.41-.04-.59,1.34-1.4,5.81-4.28,9.17-3.82.25.03.42.24.39.47-.03.23-.26.38-.51.35-3.14-.42-7.3,2.44-8.36,3.55-.09.1-.22.14-.36.14Z"/>
                <path class="cls-39" d="M261.84,358.68c-.1,0-.2-.04-.28-.1-.19-.15-.21-.41-.04-.59,1.34-1.4,5.81-4.28,9.17-3.82.25.03.42.24.39.47-.03.23-.25.38-.51.35-3.14-.42-7.3,2.44-8.36,3.55-.09.1-.22.14-.36.14Z"/>
                <path class="cls-39" d="M258.22,356.11c-.1,0-.2-.04-.28-.1-.19-.15-.21-.41-.04-.59,1.34-1.4,6.82-4.86,10.17-4.41.25.03.42.24.39.47-.03.23-.25.38-.51.35-3.13-.42-8.3,3.02-9.36,4.13-.09.1-.22.14-.36.14Z"/>
                <path class="cls-39" d="M254.68,353.55c-.1,0-.2-.04-.28-.1-.19-.15-.22-.41-.05-.58,1.85-1.99,7.58-4.88,10.94-4.42.25.03.42.24.39.47-.03.23-.26.38-.51.35-3.02-.41-8.49,2.37-10.13,4.14-.09.1-.23.15-.36.14Z"/>
              </g>
            </g>
          </g>
          <g>
            <path class="cls-26" d="M217.03,317.28l-20.34-3.01c-.97,12.4-.55,23.33-1.94,34.41-.26,2.09-2.58,16.13-2.39,20.52.28,6.6,8.93,7.46,9.97,3.67,1.04-3.78,5.58-21.41,5.87-23.1,1.9-6.65,3.83-14.12,7.78-28.25.17-.62.86-3.65,1.05-4.25Z"/>
            <g>
              <path class="cls-12" d="M205.75,375.68c-.14,4.08-1.4,7.45-3.28,9.06-2.05,1.75-4.56,2.45-7.35,1.66-2.79-.78-6.05-2.75-6.98-6.01-1.13-3.94-.57-6.15.23-9.65l17.38,4.94Z"/>
              <path class="cls-24" d="M194.91,347.33c-1.17.03-1.74,5.13-2.64,10.22-.97,5.45-2.86,7.64-3.71,12.11-.97,5.11-.6,8,1.22,11.19,1.83,3.2,8.66,6.56,12.29,2.26,2.96-3.5,4.16-7.33,4.14-12.47-.02-5.32.55-8.97.97-12.99.4-3.84,2.02-7.4,1.03-7.87-.68,1.91-1.39,4.79-1.77,4.04-.04-.49,0-.95.05-1.45.05-.43.03-.91-.26-1.26-.3-.35-.8-.48-1.27-.59-1.13-.26-4.62-1.23-5.78-1.38-.58-.07-1.16-.13-1.74-.15-.47-.02-1.03,0-1.48.13-.28.08-.54.25-.65.49-.08.18-.08.39-.09.58-.02.36-.08.71-.19,1.05-.05.15-.17.33-.34.29-.13-.04-.18-.19-.18-.32.02-.62.13-1.07.19-1.79.03-.33.11-.78.13-1.12.02-.33.04-.66.08-.99Z"/>
              <path class="cls-28" d="M187.99,372.62c-.35,3.18-.07,5.96,1.36,8.46,1.83,3.2,8.77,6.2,12.85,2.3,2.04-1.95,3.19-5.03,3.55-7.69-1.9-3.52-14.38-5.84-17.76-3.06Z"/>
              <g>
                <path class="cls-39" d="M203.22,370.45s-.1-.02-.14-.04c-.05-.02-5.77-3.04-11.05-2.17-.23.04-.46-.1-.5-.32-.04-.21.11-.42.35-.46,5.59-.92,11.42,2.15,11.62,2.25.21.1.29.34.18.54-.09.15-.27.23-.44.2Z"/>
                <path class="cls-39" d="M192.49,364.42c-.16-.02-.3-.13-.35-.28-.07-.21.06-.43.29-.49,5.28-1.38,11.39,2.05,11.61,2.16.21.11.28.35.16.54-.12.19-.39.25-.59.14-.05-.03-6.01-3.37-10.93-2.08-.06.02-.12.02-.18.01Z"/>
                <path class="cls-39" d="M192.95,360.82c-.16-.02-.3-.13-.35-.27-.07-.21.06-.43.28-.49,5.82-1.62,11.62,2.02,11.82,2.14.2.12.25.37.12.55-.13.18-.41.23-.6.11-.04-.03-5.67-3.55-11.08-2.04-.06.02-.13.02-.19.01Z"/>
                <path class="cls-8" d="M193.49,356.78c-.16-.02-.3-.12-.35-.27-.07-.21.05-.43.28-.5,5.45-1.6,11.68,2.13,11.89,2.25.2.12.26.36.13.55-.13.18-.39.24-.59.12-.05-.03-6.1-3.65-11.16-2.17-.07.02-.13.02-.2.01Z"/>
              </g>
            </g>
          </g>
          <g>
            <path class="cls-12" d="M216.53,182.89c-.53,2.28-.97,3.2-1.87,4.31-5.51,6.82-8.14,13.49-9.14,26.26-2.47,31.59-3.16,64.4-3.16,64.4-.35,2.78-3.01,7.61-4.78,22.02-1.55,12.61-1.99,29.95-1.99,29.95,0,0,14.78,2.65,19.12-1.36,2.46-9.36,10.14-33.09,14.31-46.7,3.78-12.36,6.76-30.65,6.76-30.65l4.49,25.74s-1.27,7.01-.53,16.49c.66,8.51,3.66,30.61,3.66,30.61,2.7,2.95,15.44,2.93,18.78-1.19,0,0,3.71-37.16,4.25-47.39,1.01-19.05,4.83-57.58-3.44-83.67-.35-1.11-1.92-7.33-1.92-7.33-7.12,5.24-35.58,4.87-44.53-1.48Z"/>
            <path class="cls-43" d="M229.01,192.43c-.21-.05-.42.06-.47.24-.45,1.45-.8,2.76-1.14,4.03-1.23,4.58-2.11,7.89-5.89,11.31-3.51,3.19-7.92,3.17-9.25,3.08,1.99-9.39,5.64-16.8,11.18-22.8.14-.15.12-.37-.05-.5-.16-.12-.4-.11-.54.04-5.7,6.17-9.43,13.79-11.43,23.47,0,.01-.01.03-.02.04,0,.01,0,.02,0,.03-.74,3.61-1.25,7.49-1.52,11.71-1.15,17.78-2.88,44.64-3.48,51.69-.32,3.77-1.35,7.01-2.65,11.12-1.12,3.54-2.39,7.55-3.61,13.06-2.63,11.93-2.47,31.72-2.47,31.92,0,.19.17.34.37.35,0,0,.01,0,.02,0,.21,0,.38-.16.38-.35,0-.2-.16-19.92,2.45-31.77,1.21-5.49,2.48-9.48,3.59-13.01,1.31-4.14,2.35-7.42,2.67-11.26.6-7.06,2.33-33.93,3.48-51.7.26-4.08.75-7.84,1.45-11.35.11,0,.24.02.4.03,1.73.08,6.01-.11,9.54-3.31,3.93-3.56,4.84-6.95,6.09-11.64.34-1.26.69-2.57,1.13-4.01.06-.19-.06-.38-.27-.44Z"/>
            <path class="cls-43" d="M195.7,325.93c2.68,2.67,14.63,4.58,19.01,2.54l-2.12,6.84s-3.16,1.36-9.34.54c-7.18-.95-7.85-3.21-7.85-3.21l.31-6.71Z"/>
            <path class="cls-43" d="M243.39,323.96c3.65,1.35,14.63,1.06,18.78-1.19l-.38,5.7s-2.9,2-9.13,2.36c-6.26.36-8.68-1.39-8.68-1.39l-.59-5.48Z"/>
            <path d="M235.78,251.12l5.48-31.06s9.41,1.1,16.63-6.88c0,0-.08,7.82-13.5,10.82l-6.16,28.58,2.05,24.28-4.49-25.74Z"/>
          </g>
        </g>
        <g id="Top-2" data-name="Top">
          <path class="cls-39" d="M207.33,200.4c2.17-11.07,6.7-17.25,6.8-20.75,0,0-3.18-17.61-3.64-21.76-1.18-10.8-1.1-16.08,1.26-18.79,2.21-.62,12.98-2.74,14.69-2.81,9.05-.39,10.38-.36,17.35-.26,2.61.14,7.85.97,7.85.97,2.39,1.82,4.72,4.16,7.78,7.72,5.53,6.42,7.27,10.74,6.38,17.34-.6,4.47-3.66,7.77-3.66,7.77-.43,3.2-1.12,12.26-1.12,12.26.08,3.55,2.31,8.51,4.11,17.08-9.21,13.45-46.36,10.63-57.8,1.23Z"/>
          <g id="Head-2" data-name="Head">
            <g>
              <path class="cls-12" d="M256.24,107.65c2.19-4.64.37-10.95-1.99-13.95-3.42-4.34-8.88-6.34-17.21-6.07-6.34.2-14,2.79-15.37,9.24-5.94,2.79-4.11,10.98-2.65,14.45,3.06,7.29,7.55,13.05,7.52,16.87l29.7-20.54Z"/>
              <g>
                <path class="cls-26" d="M252.84,97.75c1.42,1.11,3.76,4.23,3.4,9.9-.19,1.71.36,3.83.36,7.04,0,12.13-3.36,14.66-6.64,16.09-1.96.85-3.04.99-6.16.95v5.62s7.1,11.08,3.87,20.78c0,0,0,0,0,0-14.72-9.98-21.2-21.66-21.21-21.69,0,0-.1-13.69-.1-13.69,0,0,0,0,0,0-.08.06-1.95,1.7-5,.04-3.3-1.79-4.59-7.37-2.42-9.93,2.17-2.56,5.26-.99,6.62,1.28,1.37,2.27,4.76,1.64,3.75-1.81,1.55-.73,3.49-2.31,2.07-8.64-.32-1.63.28-4.42,1.81-5.79,2.57-2.28,7.56-1.75,10.38,1.09,3.86-3.17,6.34-3.57,9.27-1.27Z"/>
                <g>
                  <path class="cls-2" d="M240.76,120.27l5.6,1.97c-.49,1.58-2.14,2.42-3.69,1.87-1.55-.55-2.4-2.27-1.91-3.85Z"/>
                  <path class="cls-23" d="M243.97,124.26c-.01-1.46-1.19-2.64-2.65-2.65-.22,0-.44.03-.65.08.18,1.08.91,2.04,2,2.43.44.15.88.19,1.3.14Z"/>
                </g>
                <polygon class="cls-2" points="245.24 107.91 246 118.74 251.41 116.19 245.24 107.91"/>
                <path class="cls-2" d="M243.8,131.74c-3.89-.22-12.21-2.35-14.23-7.52,0,0,.3,3.68,5.08,6.54,3.76,2.25,9.14,2.72,9.14,2.72l.02-1.75Z"/>
                <g>
                  <path class="cls-12" d="M240.83,111.32c-.09.95-.92,1.64-1.87,1.56-.95-.09-1.64-.92-1.56-1.87.09-.95.93-1.64,1.87-1.56.95.09,1.64.92,1.56,1.87Z"/>
                  <path class="cls-12" d="M253.67,110.89c-.21.93-1.14,1.5-2.07,1.29-.93-.21-1.5-1.14-1.29-2.07.21-.93,1.14-1.5,2.07-1.29.93.21,1.5,1.14,1.29,2.07Z"/>
                  <path class="cls-12" d="M253.03,104.15c-1.32-.32-2.65.49-2.97,1.82l4.79,1.16c.32-1.32-.49-2.65-1.82-2.97Z"/>
                  <path class="cls-12" d="M236.88,105.06c-1.25.53-1.83,1.98-1.3,3.23l4.53-1.93c-.53-1.25-1.98-1.83-3.23-1.3Z"/>
                </g>
              </g>
            </g>
            <path class="cls-12" d="M251.78,91.5h-18.48c-12.48,4.92-7.89,20.97-5.28,22.92,7.42-3.12,6.94-10.53,6.39-14.74,3.76,3.52,10.02,6.12,12.97,6.43-1.36-1.64-2.51-5.7-2.51-5.7,0,0,1.71,3.95,5.84,6.32,4.57,2.63,7.68.88,7.68.88,0,0,1.55-11.15-6.62-16.1Z"/>
          </g>
          <g>
            <path class="cls-12" d="M218.54,137.39s7.85,7.59,9.09,20.52c3.13,32.7-20.79,39.39-20.79,39.39,0,0,.45-3.17,1.97-8.23,0,0,14.08-12.9,12.52-29.61-1.12-11.91-6.54-19.6-9.57-20.37,0,0,2.72-1.09,6.78-1.7Z"/>
            <g>
              <path class="cls-26" d="M202.68,197.79c3.13-1.09,5.19-2.41,8.38-5.33,5.9-5.41,6.23-6.21,11.13-10.99,1.66-1.62,3.15-3.23,3.85-3.96.7-.72,2.52-2.08,3.7-4.07.8-1.35,1.85-3.05,1.99-4.65.16-1.77.71-3.59.3-5.38-.12-.52-.31-1.02-.41-1.54-.14-.72-.1-1.46-.1-2.19,0-1.28-.17-2.58-.64-3.77-.4-1.02-1.03-1.89-1.85-2.61-.61-.53-1.41-1.01-2.32-.69.23.94.4,1.74.61,2.84-.21,1.93-.77,2.81-1.79,4.28-1.81,2.61-3.39,4-3.66,3.5-.28-.54.39-2.12.02-4.67-.35-2.44-1.12-3.45-1.91-3.61-1.27-.26-1.19,1.1-1.62,3.17-.51,2.47-1.5,3.86-1.47,7.48.03,3.17.58,3.88-1.12,5.38-.98.86-3.46,2.34-3.46,2.34,0,0,.47-2.8,1.26-8.85,1.64-12.55.5-22.89-2.04-24.39-5.5,1.62-10.85,4.73-13.28,14.16-2.58,10.03-2.59,11.52-4.76,31.31-1.58,14.4,4.45,13.91,9.2,12.25Z"/>
              <path class="cls-2" d="M212.31,173.32c-4.63,2.58-13.16,6.71-14.08,11.56,0,0-.72-3.86,4.86-8.13,5.79-4.44,9.67-6.39,9.67-6.39l-.45,2.97Z"/>
            </g>
            <path class="cls-43" d="M212.78,171.98s1.4-8.66,2.1-13.04c.98-6.06,1.18-15.37-3.12-19.84-3.85.9-9.71,2.86-11.98,7.08-2.26,4.22-2.49,7.57-3.55,14.6-.31,2.04-1.08,7.9-1.38,11.21,5.61,2.51,12.74,2.81,17.92,0Z"/>
          </g>
        </g>
      </g>
      <g id="Chartacter">
        <g>
          <path class="cls-18" d="M386.36,231.02l-5.81-3.27s-30.98,7.07-34.26,10.59c-1.95,2.1-6.31,23.21-4.75,23.14,2.41-.1,35.67-10.64,35.67-10.64l9.14-19.82Z"/>
          <path class="cls-35" d="M386.36,231.02l-5.81-3.27s-30.98,7.07-34.26,10.59c-1.95,2.1-6.31,23.21-4.75,23.14,2.41-.1,35.67-10.64,35.67-10.64l9.14-19.82Z"/>
          <path class="cls-12" d="M350.53,285.91c5.45.65,34.36-14.08,36.74-16.01,2.38-1.93-.91-38.88-.91-38.88l-32.69,10.87-3.14,44.02Z"/>
          <path class="cls-24" d="M346.88,239.1c-2.82,8.9-8.07,39.4-7.11,42.08.97,2.68,9.15,5.05,10.76,4.73,1.61-.32,3.14-44.02,3.14-44.02l-6.79-2.79Z"/>
        </g>
        <g id="Bottom-3" data-name="Bottom">
          <g>
            <path class="cls-40" d="M376.11,372.31l1.58-14.75-16.88,1.11s.26,8.01.49,12.54c.14,2.68-3.47,7.65-3.47,7.65,0,0,7.93,4.25,12.18,2.76,4.25-1.49,6.5-6.77,6.44-7.93-.06-1.15-.34-1.39-.34-1.39Z"/>
            <path class="cls-12" d="M335.45,395.35c-.27,0-.71,2.74.72,3.93,1.65,1.38,6.51,3.67,13,3,6.49-.67,10.03-2.49,12.65-4.47,2.62-1.99,6.3-4.79,9.24-5.34,2.73-.52,5.71-1.62,6.59-2.39.88-.77.82-4.27.82-4.27l-43.02,9.55Z"/>
            <path class="cls-43" d="M376.11,372.28s.81.02.97.84c.18.97.35,3.78.76,5.37.56,2.21.88,6.73.5,8.51-.39,1.79-4.84,2.96-7.69,3.92-2.91.98-6.3,3.05-9.27,5.27-3.08,2.3-9.52,4.63-13.75,4.53-4.99-.12-10.59-1.73-11.85-3.92-1.55-2.71-2.66-5.84,4.8-8.93,1.41-.58,6.38-3.23,8.08-4.19,4.58-2.6,7.82-5,9.99-9.69.25-.55.52-1.16,1.09-1.43.44-.21.96-.17,1.44-.1,1.23.18,6.14.9,7.26,1.42.99.46,2.39,1,2.35,2.19-.01.41-.15.82-.3,1.21-.09.24-.17.56.06.71.21.14.5-.01.7-.17.79-.64,1.37-1.46,2.03-2.21.36-.4.74-.78,1.19-1.1.41-.28.92-.42,1.28-.75.46-.41.36-.93.39-1.49Z"/>
            <path class="cls-24" d="M361.37,396.19c1.31-.97,2.69-1.91,4.09-2.75h0s-8.79,4.8-12.27,2.49c-2.24-1.49-1.14-3.23-1.07-3.79.06-.56-7.88-4.67-10.07-4.95h0c-.62.31-1.14.55-1.46.69-7.46,3.08-6.35,6.22-4.8,8.93,1.25,2.19,5.3,3.95,11.76,4.06,4.22.07,10.76-2.37,13.84-4.67Z"/>
            <path class="cls-24" d="M352.74,390.5c-4.63,1.64-2.68,2.48-1.39,2.68,1.29.19,9.11-3.91,13.89-7.33,4.99-3.57,8.16-7.5,10.02-8.81.69-.49,1.44-1.09,2.1-1.65-.11-.95-.19-1.82-.28-2.27-.15-.81-.97-.84-.97-.84-.03.56.07,1.08-.39,1.49-.36.33-.88.46-1.28.75-.45.31-.83.7-1.19,1.1-.67.75-1.25,1.57-2.03,2.21-4.1,4.71-13.85,11.03-18.48,12.68Z"/>
            <g>
              <path class="cls-12" d="M351.68,392.55c.1,0,.2-.03.29-.09.2-.15.23-.41.07-.6-1.28-1.51-7.38-5.15-10.77-4.86-.25.02-.44.23-.41.46.02.23.22.4.5.39,3.17-.26,8.96,3.34,9.98,4.54.09.1.22.16.35.16Z"/>
              <path class="cls-12" d="M355.74,390.31c.1,0,.2-.03.29-.09.2-.15.23-.41.07-.6-1.27-1.51-7.38-5.15-10.77-4.86-.25.02-.44.23-.41.46.02.23.24.41.5.39,3.17-.26,8.96,3.34,9.98,4.54.09.1.22.16.35.16Z"/>
              <path class="cls-12" d="M359.79,388.19c.1,0,.2-.03.29-.09.2-.15.23-.41.07-.6-1.28-1.51-7.38-5.15-10.77-4.86-.25.02-.44.23-.41.46.02.23.23.41.5.39,3.17-.26,8.96,3.34,9.98,4.54.09.1.22.16.35.16Z"/>
              <path class="cls-12" d="M363.55,385.75c.1,0,.2-.03.29-.09.2-.15.23-.41.07-.6-1.27-1.51-7.39-5.15-10.77-4.86-.25.02-.44.23-.41.46.02.23.24.41.5.39,3.17-.26,8.96,3.34,9.98,4.54.09.1.22.16.35.16Z"/>
              <path class="cls-12" d="M367.24,383.31c.1,0,.2-.03.28-.09.2-.14.24-.41.08-.6-1.75-2.14-8.16-5.2-11.55-4.92-.25.02-.44.23-.41.46.02.23.24.4.5.39,3.05-.26,9.19,2.69,10.74,4.58.09.11.22.17.35.17Z"/>
            </g>
          </g>
          <g>
            <path class="cls-40" d="M409.49,380.35l-3.86-13.97,17.18-2.66.77,13.52s1.83,4.83.78,6.61c-1.05,1.78-12.47,3.79-13.54,2.63-1.07-1.16-1.34-6.13-1.34-6.13Z"/>
            <path class="cls-12" d="M411.25,410.82c.56,4.33,1.51,7.12,3.41,9.44,1.91,2.32,5.25,2.68,8.54,1.47,3.29-1.21,7.44-3.79,8.16-7.69.72-3.9.36-6.45-.65-10.4l-19.47,7.18Z"/>
            <path class="cls-43" d="M423.59,377.24c1.38-.09,1.11,5.85,2.27,11.62,1.24,6.18,3.53,8.49,4.61,13.55,1.24,5.78,1.05,8.46-1.05,12.34-2.1,3.88-10.13,8.51-14.51,3.95-3.57-3.71-4-8.31-4.07-14.24-.07-6.13-.07-10.45-.64-15.03-.55-4.38-1.88-8.26-.71-8.92.13.64.27,1.45.41,2.07.11.48.39,2.85,1.16,2.77.04-.57-.01-1.1-.09-1.67-.07-.49-.06-1.05.29-1.48.35-.43,1.65-.99,2.21-1.16,1.34-.42,3.73-.96,5.1-1.26.68-.15,1.37-.27,2.05-.36.56-.07,1.22-.12,1.76-.02.33.06.64.23.78.5.1.2.1.44.11.66.03.41.11.81.25,1.19.06.17.21.36.4.29.16-.06.21-.24.2-.39-.04-.71-.17-1.22-.26-2.04-.04-.38-.14-.89-.17-1.28-.03-.38-.06-.75-.11-1.13Z"/>
            <path class="cls-24" d="M430.05,400.77c.19.83,1.35,6.35-.31,7.6-1.8,1.35-3.11-2.93-3.11-2.93,0,0-4.46-.59-10.69,2.76.39.87-.41,4.02-2.2,3.62-1.78-.39-2.87-6.76-2.89-6.84.09,5.68.59,10.12,4.06,13.73,4.38,4.55,12.4-.07,14.51-3.95,2.1-3.88,2.29-6.56,1.05-12.34-.12-.58-.27-1.12-.42-1.63Z"/>
            <path class="cls-24" d="M426.16,405.89c.16,2.13,2.49,1.08,2.4-1.94-.09-3.02-2.39-9.91-2.7-15.09-.5-7.11-.89-11.71-2.27-11.62,0,.07.01.14.02.22l.37,2.96c.07.43.13.81.16,1.27.31,4.34.48,12.79,1.15,16.7.67,3.92.71,5.38.87,7.51Z"/>
            <path class="cls-24" d="M416.68,408.04c-.58-2.03-1.05-3.39-1.78-7.3-.72-3.88-3.15-11.62-4.36-15.79-.38-.68-.55-2.02-.63-2.36-.13-.58-.26-1.32-.38-1.94-.01-.04-.02-.09-.03-.13-.84.49-.5,3.85-.03,5.59.47,1.74,1.04,3.6,1.64,6.09,1.5,4.91,1.74,12.31,2.7,15.14.96,2.82,3.47,2.73,2.89.7Z"/>
            <g>
              <path class="cls-12" d="M415.82,408.39c.06-.01.12-.04.18-.07.05-.03,4.9-2.98,10.53-2.42.28.03.55-.16.6-.41.06-.25-.12-.48-.4-.5-6.03-.59-11.05,2.46-11.26,2.59-.24.15-.32.44-.18.64.11.15.32.22.52.17Z"/>
              <path class="cls-12" d="M414.38,403.92c.06-.01.11-.03.17-.06.05-.03,5.52-3.13,11.79-2.7.28.01.54-.17.59-.42.05-.25-.14-.47-.42-.49-6.63-.45-12.22,2.73-12.46,2.86-.25.14-.34.43-.2.64.11.16.32.23.53.18Z"/>
              <path class="cls-12" d="M425.73,396.8c.19-.04.36-.18.41-.36.07-.25-.08-.49-.36-.53-6.28-1.01-12.2,2.6-12.45,2.76-.24.15-.32.44-.18.64.15.2.46.24.7.1.06-.03,5.8-3.54,11.65-2.59.07.01.15,0,.22,0Z"/>
              <path class="cls-12" d="M425.11,392.71c.19-.04.35-.18.41-.36.08-.25-.07-.49-.34-.54-6.91-1.23-12.47,2.59-12.7,2.76-.23.16-.29.45-.13.64.16.19.48.22.71.06.05-.04,5.39-3.7,11.83-2.56.08.01.15.01.23,0Z"/>
              <path class="cls-12" d="M424.4,388.11c.18-.04.35-.17.41-.35.08-.25-.07-.49-.33-.54-6.49-1.24-12.53,2.72-12.78,2.89-.24.16-.3.45-.15.64.15.2.47.23.71.07.06-.04,5.9-3.87,11.92-2.71.08.01.16.01.23,0Z"/>
            </g>
          </g>
          <g>
            <path class="cls-43" d="M417.26,229.65c3.23,34.27,2.36,83.32,2.36,83.32.28,2.6,2.26,10.36,3.96,23.16,1.52,11.41,0,35.1,0,36.54,0,0-8.1,5.66-15.63,3.24,0,0-9.32-35.25-13.44-51.16-3.9-15.06-9.09-39.26-9.09-39.26l-2.95,24.62s.71,9.94.54,16.79c-.19,7.96-5.78,39.63-5.78,39.63,0,0-9.03,5.11-16.91-.87,0,0-4.8-46.34-5.19-55.92-.75-18.77-1.85-56.91.43-80l61.69-.09Z"/>
            <path class="cls-12" d="M385.44,285.47l-4.28-24.35s-9.1-1.19-13.82-5.39c0,0,3.1,5.61,11.69,7.68l4.22,22.16-.77,24.53,2.95-24.62Z"/>
          </g>
          <path class="cls-18" d="M424.05,372.97c-1.83,2.59-9.6,4.95-16.35,2.73l-1.53-5.6c5.09,1.55,13.8.49,17.88-2.91v5.78Z"/>
          <path class="cls-18" d="M377.35,366.84c-2.24,2.22-10.88,3.44-17.15.07l-.35-5.4c4.75,2.43,13.82,2.65,18.41.02l-.92,5.31Z"/>
        </g>
        <g id="Top-3" data-name="Top">
          <path class="cls-40" d="M287.69,173.45c.77-.44,1.69-.55,2.57-.47,1.43.13,2.75.72,4.13,1.06,2.11.51,7.5,1.53,9.61.87.43-.13,1.28-.54.54-.93-.96-.5-1.96-.92-2.82-1.58-.86-.66-1.57-1.6-1.65-2.67-.02-.32.02-.67.22-.93.29-.36.58-.26.91-.12.35.14.73.23,1.11.33.77.2,1.54.4,2.31.62,4.47,1.24,9.05,2.86,12.39,6.23.49.49,3.69,4.49,5.66,6.71,1.67,2.05,12.39,12.14,12.39,12.14,0,0,5.48-6.09,9.48-10.37,7.12-7.62,9.87-10.66,12.38-13.2,2.2-2.23,5.83-4.92,9.9-5.36l-3.27,28.21s-13.52,11.94-17.46,15.01c-8.1,6.3-10.85,8.08-15.06,5.05-4.52-3.25-7.54-6.67-11.94-14.83-3.59-6.67-4.48-8.24-5.74-10.26-1.07-1.72-3.74-1.65-5.17-1.71-2.61-.11-5.29-.4-7.82-1.06-1.67-.43-3.29-1.04-4.79-1.89-.63-.36-1.64-.82-2.04-1.45-.37-.58-.44-1.31-.9-1.88-.51-.64-1.31-1.02-1.74-1.71-.34-.54-.42-1.21-.61-1.82-.31-.97-1.06-1.38-1.91-1.83-.41-.22-.86-.41-1.14-.79-.44-.61-.06-1.06.46-1.36Z"/>
          <path class="cls-23" d="M335.06,194.71h0s1.49-1.65,1.49-1.65c2.99,2.99,4.52,8.12,3.19,12.36.06-1.71-.82-6.8-4.67-10.72Z"/>
          <path class="cls-23" d="M306.91,176.12c1.53,2.2,4.71,4.3,6.35,4.72,0,0-2.39.38-4.02-.87-1.79-1.37-2.19-2.84-2.33-3.85Z"/>
          <g>
            <path class="cls-14" d="M373.55,164.15c-8.77-.37-12.09,1.09-16.14,5.02-4.06,3.93-15.03,16.75-15.03,16.75,0,0-.73-.86-4.05,3.33-3.37,4.26-2.87,5.01-2.87,5.01,0,0,4.33.67,7.07,4.94,2.74,4.26,3.77,9.64,3.77,9.64,0,0,.99-.24,3.93-2.66,2.94-2.42,23-20.33,23-20.33l.32-21.7Z"/>
            <path class="cls-25" d="M373.55,164.29c-8.77-.37-12.09,1.09-16.14,5.02-4.06,3.93-15.03,16.75-15.03,16.75,0,0-.73-.86-4.05,3.33-3.37,4.26-2.87,5.01-2.87,5.01,0,0,4.33.67,7.07,4.94,2.74,4.26,3.77,9.64,3.77,9.64,0,0,.99-.24,3.93-2.66,2.94-2.42,23-20.33,23-20.33l.32-21.7Z"/>
            <path class="cls-34" d="M352.6,197.24c.52,1.65.61,3.28.55,4.99,0,.22.21.11.26-.02,1.17-3.04-.12-6.46-1.86-9-.95-1.39-2.12-2.65-3.39-3.75-.65-.56-1.34-1.09-2.06-1.57-.69-.47-1.45-1.04-2.25-1.28-.19-.06-.45.23-.29.39.57.56,1.38.92,2.03,1.4.6.44,1.17.91,1.73,1.4,1.13,1.01,2.19,2.11,3.11,3.33.93,1.24,1.72,2.62,2.18,4.11ZM341.37,190.75c.48.47,1.19.76,1.76,1.13.59.37,1.16.78,1.71,1.2,1.1.83,2.13,1.77,3.02,2.83.91,1.08,1.74,2.31,2.27,3.63.29.72.47,1.49.59,2.26.11.73.09,1.55.28,2.27.03.1.14.02.15-.05.15-.75.13-1.62.09-2.37-.05-.77-.18-1.51-.45-2.24-.49-1.33-1.28-2.56-2.17-3.66-.95-1.17-2.07-2.2-3.28-3.11-.58-.44-1.2-.83-1.83-1.2-.61-.36-1.3-.81-2-.95-.12-.02-.23.18-.14.27Z"/>
          </g>
          <path id="Chest-2" data-name="Chest" class="cls-39" d="M397.48,161.92c3.45.71,13.95,4.92,17.92,7.13,0,0,4.6,9.62,2.27,31.89-.37,3.56-1.32,13.17-1.76,20.59-.6,10.01-.16,12.82.12,18.14,0,0-9.37,8.19-33.78,6.35-19.17-1.44-24.93-9.32-24.93-9.32,0,0,.09-25.85.59-39.99.65-18.56,6.28-29.28,10.41-32.52l12.58-2.1,16.58-.18Z"/>
          <g>
            <path class="cls-18" d="M399.73,162.01l-.05,1.23s-4.6,11.04-4.99,32.82c-.38,21.78,0,57.22,0,57.22,0,0,12.44,3.46,25.26-2,0,0-.97-16.35-.76-25,.21-8.66-.78-21.46,0-33.98.78-12.52-3.4-23.54-3.4-23.54l-16.08-6.75Z"/>
            <path class="cls-18" d="M380.65,161.3l-12.33,2.9s-7.36,4.6-9.97,21.68c-2.61,17.08-3.91,58.47-3.91,58.47,1.67,1.05,6.09,2.79,8.19,3.08,0,0,.77-20.38,1.85-39.16,1.31-22.65,2.85-36.91,15.98-46.14l.18-.84Z"/>
            <path class="cls-31" d="M402.76,199.36c-2.17,2.14-4.31,4.31-6.42,6.51,2.39-2.04,4.74-4.1,7.06-6.21l.18-.16c-.91-1.86-1.78-3.75-2.72-5.6,0,0-2.01-4.01-2.42-4.84,2-.73,4-1.5,5.99-2.27l.31-.12v-.32c.24-6.75.4-13.77.32-20.51-.59,6.6-.98,13.5-1.27,20.14-2.25.82-4.5,1.66-6.73,2.54l.25.49c1.59,3.05,3.79,7.32,5.45,10.35ZM358.82,192.72l.07.16c1.25,2.87,2.53,5.72,3.88,8.55-.99-2.9-2.05-5.77-3.14-8.63,1.72-2.47,3.41-4.96,5.07-7.47l.18-.28-.18-.28-2.37-3.62c.51-1.52,1.13-3.01,1.82-4.47,2.25-4.6,5.07-8.88,8.15-12.99-4.73,5.1-8.88,10.95-11.11,17.6,0,0,.14.21.14.21l2.35,3.55c-1.61,2.48-3.2,4.97-4.74,7.49,0,0-.11.17-.11.17Z"/>
          </g>
          <g>
            <path class="cls-23" d="M385.8,205.13c-3.5-2.16-5.24-2.96-6.8-3.26s-7.14-2.06-9.24-2.4c-1.33-.21-1.68,1.91.11,3.2,1.38.99,4.83,2.14,6.36,2.81,1.53.67,4.7,3.9,4.7,3.9l4.87-4.25Z"/>
            <path class="cls-40" d="M425.14,175.63c-2.1-4.05-5.15-4.62-8.94-5.86-10.93,5.69-2.84,28.9-2.84,28.9l4.87,18.7s-16.11-.47-18.46-1.7c-2.35-1.23-8.87-7.11-11.03-8.86-2.95-2.37-4.27-1.9-5.63-1.58-4.47,1.08-5.43,1.54-6.33,2.24-.91.69-.73,1.84-.73,1.84-1.19.26-2.99.38-3.05,2.37-.04,1.32.07,1.59.07,1.59,0,0-.43.08-.74.52-.9,1.25,1.17,5.11,2.34,5.99.83.62,1.92.61,3.34.29,1.2-.27.53-1.46.53-1.46l1.71-.05c3.91,2.29,4.55,7.46,9.52,8.18,1.05.15,3.16-.06,6.05.63,10.79,2.6,27.68,8.64,37.09,8.62,9.19-.01,6.84-10.4,5.63-17.06-.89-4.92-8.2-33.27-13.4-43.31Z"/>
            <g>
              <path class="cls-23" d="M376.05,209.32l5.28-1.56-5.23.8c-.06.26-.08.51-.05.75Z"/>
              <path class="cls-23" d="M373.06,213.28l6.12-1.35-6.19.63c0,.23.02.47.07.72Z"/>
              <path class="cls-23" d="M375.07,216.43c.28.08.56.13.85.17.67.06,2.17-.04,2.17-.04,0,0,.09.44.87,1.12.42.37,1.29.9,1.29.9l-1.71.05s-.45-.65-1.84-.85c-.27-.03-.58.06-.82.23-.24.18-.44.44-.57.73.07-.31.21-.63.47-.86.17-.16.39-.26.62-.31l-.42-.73c-.33-.05-.65-.12-.96-.25-.35-.13-.68-.35-.9-.65.27.26.61.39.95.49Z"/>
            </g>
            <path class="cls-14" d="M415.8,168.76c7.44,2.58,10.11,4.68,12.82,11.17,3.37,8.09,7.25,25.27,8.39,28.61,2.87,4.09,1.55,10.24,1.55,10.24,0,0-9.8-7.42-20.33-1.41,0,0-4.37-15.77-5.61-18.64-1.24-2.86-8.08-23.69,3.18-29.98Z"/>
            <path class="cls-25" d="M415.8,168.76c7.44,2.58,10.11,4.68,12.82,11.17,3.37,8.09,7.25,25.27,8.39,28.61,2.87,4.09,1.55,10.24,1.55,10.24,0,0-9.8-7.42-20.33-1.41,0,0-4.37-15.77-5.61-18.64-1.24-2.86-8.08-23.69,3.18-29.98Z"/>
            <path class="cls-34" d="M418.67,212.39c1.07-.81,2.14-1.58,3.36-2.15,1.27-.59,2.61-1.03,3.99-1.3,1.63-.31,3.3-.39,4.95-.29,1.63.09,3.19.42,4.78.76.04,0,.02-.07,0-.08-2.96-1.13-6.35-1.46-9.47-.93-2.8.48-5.71,1.71-7.7,3.8-.06.06-.02.27.08.2ZM419.22,214.87s-.01.21.06.16c.87-.52,1.68-1.12,2.59-1.58.93-.48,1.91-.87,2.92-1.15,2.07-.57,4.15-.69,6.29-.56.03,0,.01-.05,0-.06-2.02-.51-4.22-.41-6.22.13-2.01.55-4.19,1.5-5.62,3.05Z"/>
          </g>
          <g id="Head-3" data-name="Head">
            <g>
              <g>
                <path class="cls-24" d="M402.4,122.57s3.54.03,5.31,2.64c1.77,2.62,2.99,7.47,1.12,13.05-2.06,6.13-6.32,12.14-7.23,13.88-.91,1.74-2.78,2.22-2.78,2.22l.19-7.45.28-5.19s-4.19-3.8-4.55-7.53c-.46-4.8,1.41-7.52,1.41-7.52l6.24-4.09Z"/>
                <path class="cls-24" d="M376.92,131.28c2.01-.96,4.58-1.31,6.77-1.45,2.08-.13,4.16-.27,6.25-.41,2.23-.15,4.46-.29,6.69-.44,0,0,7.13-1.19,7.13-6.24,0-2.49-1.22-4.15-1.48-4.51-.92-1.27-2.39-2.7-3.7-3.54-3.12-2.01-5.96-3.04-9.76-3.31-2.74-.19-5.49.19-8.18.72-1.82.35-3.69.77-5.52.47-1.31-.22-2.72-.99-2.94-2.31-1.41,1.71-1.66,4.3-.6,6.25-1.79-.08-3.48,1.3-3.95,3.03-.52,1.94.38,3.49,1.52,4.95-.14-.18-.86,1.25-.92,1.37-.39.83-.53,1.78-.35,2.7.25,1.3,1.42,2.23,2.61,2.81,2.1,1.02,4.35.89,6.43-.11Z"/>
                <path class="cls-40" d="M405.83,149.09c-3.86,1.88-5.62-1.18-5.62-1.18l-.58,15.37c-7.41,9.92-27.2,6.34-19.08-1.09l.02-3.51s-1.3,0-3.34-.33c-3.42-.54-6.55-3.58-7.57-7.28-1.5-5.48-1.11-13.92.96-23.25.4-1.8,1.18-3.77,2.83-4.58,4.1-2.03,7.9.9,13.62,3.13,2.37.92,8.11,1.33,9.62.62-2,2.2-1.98,9.16.96,11.98.51.98,1.05,1.55,1.47,1.92,1.25,1.09,2.27-1.72,3.33-2.82,1.06-1.09,5-2.07,6.7,1.54,1.72,3.68.28,7.74-3.3,9.48Z"/>
                <path class="cls-23" d="M380.56,158.68c4.49-.03,8.47-.58,11.11-1.7,2.65-1.12,4.99-4.7,5.76-8.25,0,2.86-1.25,7.93-5.27,10.03-4.01,2.11-8.69,2.22-11.62,2.28v-2.37Z"/>
              </g>
              <g>
                <path class="cls-24" d="M387.03,132.08l3.79,1.6c.42-1.09-.09-2.32-1.14-2.76-1.05-.44-2.24.08-2.65,1.17Z"/>
                <path class="cls-24" d="M372.84,131.99l3.85-1.53c-.39-1.09-1.56-1.63-2.62-1.21-1.06.42-1.61,1.65-1.23,2.74Z"/>
                <path class="cls-12" d="M389.34,136.85c-.03.93-.81,1.65-1.74,1.62-.93-.03-1.65-.81-1.62-1.74.03-.93.81-1.65,1.74-1.62.93.03,1.65.81,1.62,1.74Z"/>
                <path class="cls-12" d="M375.83,136.16c-.03.93-.81,1.65-1.74,1.62-.93-.03-1.65-.81-1.62-1.74.03-.93.81-1.65,1.74-1.62,1.06.04,1.65.67,1.62,1.74Z"/>
                <path class="cls-23" d="M382.15,133.13l-1.38,10.67-5.64-2.08c2.01-3.76,4.35-6.63,7.02-8.59Z"/>
              </g>
            </g>
            <path class="cls-7" d="M385.85,145.65l-6.76,2.23c.58,1.93,2.57,3,4.43,2.39,1.87-.62,2.91-2.68,2.32-4.62Z"/>
            <path class="cls-23" d="M385.14,146.87c.29-.06.58-.08.86-.08-.02,1.55-.97,2.99-2.47,3.48-.38.12-.76.16-1.13.16-.28-1.58.92-3.16,2.74-3.56Z"/>
          </g>
          <path class="cls-43" d="M402.41,163.46c-13.99,10.47-41.75,31.02-55.53,75.63l6.79,2.79c10.08-40.32,41.78-65.53,55.76-76.01l-7.02-2.42Z"/>
        </g>
      </g>
      <g id="Speech_Bubble-3" data-name="Speech Bubble">
        <g>
          <path class="cls-18" d="M431.53,115.09l-1-3.11c-.54-2.51,9.72,3.41,10.25,5.92l-3.3,8.89c-.13.29-.32.51-.55.65-.73.45-3.4,1.95-3.63,2.1-.73.45-1.81.17-2.11-.78l-4.28-14.68c-.26-1.24,2.1-.43,4.62,1.02Z"/>
          <path class="cls-16" d="M431.53,115.09l-1-3.11c-.54-2.51,9.72,3.41,10.25,5.92l-3.3,8.89c-.13.29-.32.51-.55.65-.73.45-3.4,1.95-3.63,2.1-.73.45-1.81.17-2.11-.78l-4.28-14.68c-.26-1.24,2.1-.43,4.62,1.02Z"/>
        </g>
        <path class="cls-18" d="M417.59,55.32l38.98,22.48c.73.42,1.32,1.44,1.32,2.28v46.18c0,.84-.59,1.86-1.32,2.27l-2.41,1.36c-.73.41-1.92.41-2.64-.01l-38.98-22.48c-.73-.42-1.32-1.44-1.32-2.28v-46.18c0-.84.59-1.86,1.32-2.27l2.41-1.36c.73-.41,1.91-.41,2.64.01Z"/>
        <path class="cls-16" d="M417.59,55.32l38.98,22.48c.73.42,1.32,1.44,1.32,2.28v46.18c0,.84-.59,1.86-1.32,2.27l-2.41,1.36c-.73.41-1.92.41-2.64-.01l-38.98-22.48c-.73-.42-1.32-1.44-1.32-2.28v-46.18c0-.84.59-1.86,1.32-2.27l2.41-1.36c.73-.41,1.91-.41,2.64.01Z"/>
        <path class="cls-18" d="M412.53,58.18l38.98,22.48c.73.42,1.32,1.44,1.32,2.28v46.18c0,.84-.59,1.18-1.32.76l-14.92-8.6-2.74,7.6c-.53,1.21-2.27,1.12-2.67-.14l-3.64-12.69-15.01-8.66c-.73-.42-1.32-1.44-1.32-2.28v-46.18c0-.84.59-1.18,1.32-.76Z"/>
        <path class="cls-15" d="M412.53,58.18l38.98,22.48c.73.42,1.32,1.44,1.32,2.28v46.18c0,.84-.59,1.18-1.32.76l-14.92-8.6-2.74,7.6c-.53,1.21-2.27,1.12-2.67-.14l-3.64-12.69-15.01-8.66c-.73-.42-1.32-1.44-1.32-2.28v-46.18c0-.84.59-1.18,1.32-.76Z"/>
        <path class="cls-11" d="M418.86,89.07v-7.85l14,16.81,17.86-.82-17.86-19.78-17.86-.85,3.44,4.13v8.11c-.24-.02-.41.18-.41.54v7.96c0,.46.28.99.62,1.18.34.2.62-.01.62-.47v-7.96c0-.36-.17-.75-.41-1.01ZM422.78,88.7v10.59c0,6.2,20.17,17.84,20.17,11.64v-10.59l-10.08.46-10.08-12.11Z"/>
        <path class="cls-13" d="M411.23,58.7c.1-.66.65-.9,1.3-.52l38.97,22.49c.36.21.69.57.93.99l5.04-2.91c-.24-.4-.55-.74-.91-.94l-38.98-22.49c-.72-.42-1.9-.43-2.64-.01l-2.41,1.36c-.66.38-1.22,1.25-1.31,2.03Z"/>
      </g>
      <g>
        <polygon class="cls-44" points="88.57 60.25 240.17 5.32 391.78 60.25 406.45 60.25 240.17 0 73.89 60.25 88.57 60.25"/>
        <polygon class="cls-44" points="377.1 60.25 103.24 60.25 240.17 10.64 377.1 60.25"/>
        <polygon class="cls-44" points="383.19 65.94 383.19 72.99 371.93 72.99 371.93 65.94 364.88 65.94 364.88 72.99 353.61 72.99 353.61 65.94 346.56 65.94 346.56 72.99 335.29 72.99 335.29 65.94 328.24 65.94 328.24 72.99 316.97 72.99 316.97 65.94 309.92 65.94 309.92 72.99 298.66 72.99 298.66 65.94 291.6 65.94 291.6 72.99 280.34 72.99 280.34 65.94 273.28 65.94 273.28 72.99 262.02 72.99 262.02 65.94 254.97 65.94 254.97 72.99 243.7 72.99 243.7 65.94 236.65 65.94 236.65 72.99 225.38 72.99 225.38 65.94 218.33 65.94 218.33 72.99 207.06 72.99 207.06 65.94 200.01 65.94 200.01 72.99 188.75 72.99 188.75 65.94 181.69 65.94 181.69 72.99 170.43 72.99 170.43 65.94 163.37 65.94 163.37 72.99 152.11 72.99 152.11 65.94 145.06 65.94 145.06 72.99 133.79 72.99 133.79 65.94 126.74 65.94 126.74 72.99 115.47 72.99 115.47 65.94 108.42 65.94 108.42 72.99 97.15 72.99 97.15 65.94 90.1 65.94 90.1 72.99 90.1 87.23 390.25 87.23 390.25 72.99 390.25 72.99 390.25 65.94 383.19 65.94"/>
      </g>
    </g>
  </g>
</svg>
